<?xml version="1.0" encoding="utf-8"?>
<!-- Generator: Adobe Illustrator 14.0.0, SVG Export Plug-In . SVG Version: 6.00 Build 43363)  -->
<!DOCTYPE svg PUBLIC "-//W3C//DTD SVG 1.1//EN" "http://www.w3.org/Graphics/SVG/1.1/DTD/svg11.dtd">
<svg version="1.1" id="Layer_1" xmlns="http://www.w3.org/2000/svg" xmlns:xlink="http://www.w3.org/1999/xlink" x="0px" y="0px"
	 width="239px" height="239px" viewBox="0 0 239 239" enable-background="new 0 0 239 239" xml:space="preserve">
<g id="Layer_3">
	<g>
		<g>
			<g>
				
					<radialGradient id="SVGID_1_" cx="-3508.0757" cy="-204.6265" r="36.0615" gradientTransform="matrix(-0.0229 -0.9997 -1.5213 0.0348 -280.3602 -3377.1143)" gradientUnits="userSpaceOnUse">
					<stop  offset="0" style="stop-color:#FFFFFF"/>
					<stop  offset="0.4275" style="stop-color:#FFFFFF;stop-opacity:0.8706"/>
					<stop  offset="1" style="stop-color:#FFFFFF;stop-opacity:0"/>
				</radialGradient>
				<polygon fill="url(#SVGID_1_)" points="192.42,124.33 125.57,161.42 97.82,162.08 97.67,156.67 169.42,119.73 95.92,85.12 
					95.77,80.47 192.07,109.62 				"/>
			</g>
			<g>
				<polygon fill="#72776F" points="93.32,86.97 94.97,155.73 93.52,155.02 91.87,87.72 93.22,86.92 				"/>
				
					<linearGradient id="SVGID_2_" gradientUnits="userSpaceOnUse" x1="-1088.8608" y1="-1109.2656" x2="-1090.4421" y2="-1040.5035" gradientTransform="matrix(1 0 0 -1 1219.0439 -954.207)">
					<stop  offset="0" style="stop-color:#9C9794"/>
					<stop  offset="0.4235" style="stop-color:#B1B9AE;stop-opacity:0.498"/>
					<stop  offset="0.6902" style="stop-color:#D8DAD1;stop-opacity:0.8431"/>
					<stop  offset="1" style="stop-color:#FFFFFF;stop-opacity:0.9725"/>
				</linearGradient>
				<polygon fill="url(#SVGID_2_)" points="94.97,155.73 93.32,86.97 164.67,119.83 				"/>
				<path fill="none" d="M93.32,86.97l71.35,32.85l-69.7,35.901 M93.32,86.97l1.65,68.75"/>
			</g>
			<g>
				
					<radialGradient id="SVGID_3_" cx="-3489.8896" cy="-173.4648" r="34.0337" gradientTransform="matrix(-0.023 -0.9997 -1.6515 0.038 -237.1752 -3344.4792)" gradientUnits="userSpaceOnUse">
					<stop  offset="0" style="stop-color:#FFFFFF;stop-opacity:0.4431"/>
					<stop  offset="0.7137" style="stop-color:#FAFAFA;stop-opacity:0.298"/>
					<stop  offset="1" style="stop-color:#F9F9F9;stop-opacity:0"/>
				</radialGradient>
				<path fill="url(#SVGID_3_)" d="M164.07,119.92l0.3,0.15c0,0.029,0.101,0.029,0.3,0L96.42,155.27c-0.07,0.03-0.17,0.03-0.3,0
					c-0.03,0-0.1-0.049-0.2-0.147c-0.03,0-0.03-0.052,0-0.147h0.15L164.07,119.92z"/>
				
					<radialGradient id="SVGID_4_" cx="-3525.2617" cy="-156.8975" r="33.912" gradientTransform="matrix(-0.0228 -0.9997 -1.6528 0.0377 -245.6753 -3396.8433)" gradientUnits="userSpaceOnUse">
					<stop  offset="0" style="stop-color:#FFFFFF"/>
					<stop  offset="0.8549" style="stop-color:#FAFAFA"/>
					<stop  offset="1" style="stop-color:#F9F9F9;stop-opacity:0"/>
				</radialGradient>
				<path fill="url(#SVGID_4_)" d="M93.42,87.37c0.07,0.1,0.1,0.18,0.1,0.25l1.65,67.7c0,0.029-0.03,0.08-0.1,0.15
					c-0.1,0.067-0.2,0.067-0.3,0c-0.03,0.027-0.1,0.027-0.2,0c-0.03,0-0.03-0.041,0-0.103l-1.7-67.75c-0.03,0-0.03-0.05,0-0.15
					c0.1-0.07,0.2-0.1,0.3-0.1C93.21,87.37,93.29,87.37,93.42,87.37z"/>
			</g>
			<g>
				
					<radialGradient id="SVGID_5_" cx="97.4863" cy="-29198.5" r="33.0628" gradientTransform="matrix(0.9104 0.4138 0.0276 -0.0223 850.5094 -584.7295)" gradientUnits="userSpaceOnUse">
					<stop  offset="0" style="stop-color:#FFFFFF"/>
					<stop  offset="0.1765" style="stop-color:#FFFFFF"/>
					<stop  offset="0.3059" style="stop-color:#FFFFFF;stop-opacity:0.4235"/>
					<stop  offset="0.4902" style="stop-color:#FFFFFF;stop-opacity:0.2314"/>
					<stop  offset="0.651" style="stop-color:#FFFFFF;stop-opacity:0.0824"/>
					<stop  offset="1" style="stop-color:#FFFFFF;stop-opacity:0"/>
				</radialGradient>
				<path fill="url(#SVGID_5_)" d="M162.971,119.83c0.299,0.27,0.42,0.42,0.35,0.449c-0.1,0.101-0.368,0.051-0.801-0.149
					c-1.47-0.4-4.397-1.52-8.799-3.35c-6.131-2.57-13.211-5.68-21.25-9.35c-8.07-3.7-14.971-6.97-20.701-9.8
					c-5.37-2.63-7.95-4.07-7.75-4.3c0.3-0.13,3.28,0.98,8.95,3.35c6.1,2.53,13.2,5.63,21.299,9.3c8.028,3.7,14.951,6.97,20.75,9.8
					C159.189,117.84,161.84,119.19,162.971,119.83z"/>
				
					<radialGradient id="SVGID_6_" cx="-4827.3525" cy="1051.6396" r="0.7042" gradientTransform="matrix(-0.8348 -0.5506 -2.9128 1.7051 -803.6503 -4330.5522)" gradientUnits="userSpaceOnUse">
					<stop  offset="0" style="stop-color:#FFFFFF"/>
					<stop  offset="0.1765" style="stop-color:#FFFFFF"/>
					<stop  offset="0.3059" style="stop-color:#FFFFFF;stop-opacity:0.4235"/>
					<stop  offset="0.4902" style="stop-color:#FFFFFF;stop-opacity:0.2314"/>
					<stop  offset="0.651" style="stop-color:#FFFFFF;stop-opacity:0.0824"/>
					<stop  offset="1" style="stop-color:#FFFFFF;stop-opacity:0"/>
				</radialGradient>
				<path fill="url(#SVGID_6_)" d="M162.52,120.12c0.433,0.2,0.701,0.25,0.801,0.149c0.07-0.029-0.051-0.182-0.35-0.452
					c0.299-0.2,0.629-0.37,1-0.5c0.539-0.03,0.869-0.03,1,0c0.199,0.13,0.129,0.33-0.201,0.6c-0.199,0.33-0.6,0.63-1.199,0.898
					c-0.568,0.302-1.131,0.552-1.698,0.75c-0.472,0.199-0.802,0.229-1,0.102c-0.13-0.13-0.03-0.352,0.3-0.648
					c0.271-0.271,0.67-0.529,1.2-0.799L162.52,120.12z"/>
				
					<radialGradient id="SVGID_7_" cx="-3186.5894" cy="-74127.7266" r="34.5584" gradientTransform="matrix(0.8907 -0.4546 -0.021 -0.0152 1406.5464 -2435.6748)" gradientUnits="userSpaceOnUse">
					<stop  offset="0" style="stop-color:#FFFFFF"/>
					<stop  offset="0.1765" style="stop-color:#FFFFFF"/>
					<stop  offset="0.3059" style="stop-color:#FFFFFF;stop-opacity:0.4235"/>
					<stop  offset="0.4902" style="stop-color:#FFFFFF;stop-opacity:0.2314"/>
					<stop  offset="0.651" style="stop-color:#FFFFFF;stop-opacity:0.0824"/>
					<stop  offset="1" style="stop-color:#FFFFFF;stop-opacity:0"/>
				</radialGradient>
				<path fill="url(#SVGID_7_)" d="M125.62,140.17c-8.3,4.27-15.53,7.88-21.7,10.85c-5.83,2.73-8.83,4.03-9,3.9
					c-0.13-0.13,2.52-1.68,7.95-4.65c5.93-3.199,13.03-6.92,21.3-11.147c8.33-4.2,15.58-7.78,21.75-10.75
					c6.23-3,9.471-4.433,9.7-4.302c0.13,0.132-2.771,1.779-8.7,4.949C141.05,132.23,133.96,135.939,125.62,140.17z"/>
				
					<radialGradient id="SVGID_8_" cx="-3530.0952" cy="-2707.626" r="4.9021" gradientTransform="matrix(-0.0275 -0.9996 -0.283 0.0078 -769.9623 -3414.2891)" gradientUnits="userSpaceOnUse">
					<stop  offset="0" style="stop-color:#FFFFFF"/>
					<stop  offset="0.1765" style="stop-color:#FFFFFF"/>
					<stop  offset="0.3059" style="stop-color:#FFFFFF;stop-opacity:0.4235"/>
					<stop  offset="0.4902" style="stop-color:#FFFFFF;stop-opacity:0.2314"/>
					<stop  offset="0.651" style="stop-color:#FFFFFF;stop-opacity:0.0824"/>
					<stop  offset="1" style="stop-color:#FFFFFF;stop-opacity:0"/>
				</radialGradient>
				<path fill="url(#SVGID_8_)" d="M92.37,89.87c0.17-0.93,0.48-1.45,0.95-1.55c0.4,0,0.7,0.52,0.9,1.55
					c0.33,0.9,0.52,2.05,0.55,3.45c0.07,1.3-0.02,2.4-0.25,3.3c-0.23,0.93-0.57,1.38-1,1.35c-0.47,0.03-0.78-0.42-0.95-1.35
					c-0.27-0.9-0.43-2-0.5-3.3C92.04,91.99,92.14,90.84,92.37,89.87z"/>
			</g>
		</g>
	</g>
</g>
<g id="Layer_2_1_">
</g>
<g>
	<g>
		<g>
			<g>
				
					<linearGradient id="SVGID_9_" gradientUnits="userSpaceOnUse" x1="-1258.0591" y1="895.1152" x2="-1195.5323" y2="895.1152" gradientTransform="matrix(0.9999 -0.0123 0.0123 0.9999 1312.7794 -789.004)">
					<stop  offset="0" style="stop-color:#000000"/>
					<stop  offset="1" style="stop-color:#4F504F"/>
				</linearGradient>
				<rect x="69.215" y="115.586" fill="url(#SVGID_9_)" width="55.799" height="11.049"/>
			</g>
			<g>
				
					<linearGradient id="SVGID_10_" gradientUnits="userSpaceOnUse" x1="-4517.7324" y1="923.7324" x2="-4457.4331" y2="923.7324" gradientTransform="matrix(1.658375e-005 -1 1 -0.001 -845.5937 -4369.2734)">
					<stop  offset="0" style="stop-color:#000000"/>
					<stop  offset="1" style="stop-color:#4F504F"/>
				</linearGradient>
				<rect x="69.315" y="81.285" fill="url(#SVGID_10_)" width="17.5" height="79.85"/>
			</g>
		</g>
		<g>
			
				<linearGradient id="SVGID_11_" gradientUnits="userSpaceOnUse" x1="-4502.5918" y1="966.1299" x2="-4480.564" y2="966.1299" gradientTransform="matrix(4.540295e-005 -1 1 -0.001 -845.5114 -4369.2734)">
				<stop  offset="0" style="stop-color:#000000"/>
				<stop  offset="1" style="stop-color:#4F504F"/>
			</linearGradient>
			<path fill="url(#SVGID_11_)" d="M112.564,113.385c2.17-2.17,4.801-3.25,7.898-3.25s5.721,1.08,7.852,3.25
				c2.131,2.1,3.199,4.721,3.199,7.851c0,3.068-1.068,5.681-3.199,7.851c-2.131,2.101-4.75,3.149-7.852,3.149
				c-3.104,0-5.729-1.051-7.898-3.149c-2.17-2.17-3.25-4.778-3.25-7.851C109.314,118.105,110.396,115.494,112.564,113.385z"/>
		</g>
		<g>
			<g>
				
					<linearGradient id="SVGID_12_" gradientUnits="userSpaceOnUse" x1="-2650.1211" y1="1543.0762" x2="-2636.3572" y2="1543.0762" gradientTransform="matrix(0.7628 -0.6466 0.6466 0.7628 1094.1132 -2791.0154)">
					<stop  offset="0" style="stop-color:#B7B7B7"/>
					<stop  offset="0.2667" style="stop-color:#C9C9C9"/>
					<stop  offset="0.502" style="stop-color:#EBEBEB"/>
					<stop  offset="0.7098" style="stop-color:#C5C5C5"/>
					<stop  offset="1" style="stop-color:#ADADAD"/>
				</linearGradient>
				<path fill="url(#SVGID_12_)" d="M82.965,97.885c-1.33,1.33-2.95,2-4.85,2c-1.87,0-3.48-0.67-4.85-2c-1.33-1.369-2-2.98-2-4.85
					c0-1.9,0.67-3.52,2-4.85c1.37-1.371,2.98-2.051,4.85-2.051c1.9,0,3.52,0.68,4.85,2.051c1.37,1.33,2.05,2.949,2.05,4.85
					C85.015,94.904,84.335,96.525,82.965,97.885z"/>
			</g>
			<g>
				
					<radialGradient id="SVGID_13_" cx="-4465.9326" cy="-1768.0337" r="7.9128" gradientTransform="matrix(6.319115e-005 -1 -1 6.319115e-005 -1685.0837 -4368.5337)" gradientUnits="userSpaceOnUse">
					<stop  offset="0" style="stop-color:#FFFFFF"/>
					<stop  offset="0.3333" style="stop-color:#FEFEFE;stop-opacity:0.7961"/>
					<stop  offset="1" style="stop-color:#F6F6F6;stop-opacity:0"/>
				</radialGradient>
				<path fill="url(#SVGID_13_)" d="M84.115,90.885c0.33,0.701,0.5,1.479,0.5,2.35c0,1.701-0.65,3.18-1.95,4.451
					c-1.27,1.229-2.78,1.85-4.55,1.85c-1.73,0-3.22-0.58-4.45-1.75l-0.5-0.5l1-1.051l0.55,0.5c0.93,0.9,2.07,1.352,3.4,1.352
					c1.37,0,2.53-0.5,3.5-1.5c1-0.932,1.5-2.051,1.5-3.352c0-0.629-0.12-1.25-0.35-1.85l-0.3-0.75l1.4-0.5L84.115,90.885z"/>
			</g>
		</g>
		<g>
			<g>
				
					<linearGradient id="SVGID_14_" gradientUnits="userSpaceOnUse" x1="-2687.2998" y1="1586.8887" x2="-2673.5347" y2="1586.8887" gradientTransform="matrix(0.7628 -0.6466 0.6466 0.7628 1094.1132 -2791.0154)">
					<stop  offset="0" style="stop-color:#B7B7B7"/>
					<stop  offset="0.2667" style="stop-color:#C9C9C9"/>
					<stop  offset="0.502" style="stop-color:#EBEBEB"/>
					<stop  offset="0.7098" style="stop-color:#C5C5C5"/>
					<stop  offset="1" style="stop-color:#ADADAD"/>
				</linearGradient>
				<path fill="url(#SVGID_14_)" d="M78.115,143.533c1.9,0,3.52,0.682,4.85,2.053c1.37,1.33,2.05,2.947,2.05,4.85
					c0,1.93-0.68,3.57-2.05,4.9c-1.33,1.367-2.95,2.049-4.85,2.049c-1.87,0-3.48-0.682-4.85-2.049c-1.33-1.33-2-2.973-2-4.9
					c0-1.898,0.67-3.521,2-4.85C74.635,144.225,76.245,143.533,78.115,143.533z"/>
			</g>
			<g>
				
					<radialGradient id="SVGID_15_" cx="-4523.3818" cy="-1768.0283" r="7.9132" gradientTransform="matrix(6.319115e-005 -1 -1 6.319115e-005 -1685.0759 -4368.5337)" gradientUnits="userSpaceOnUse">
					<stop  offset="0" style="stop-color:#FFFFFF"/>
					<stop  offset="0.3333" style="stop-color:#FEFEFE;stop-opacity:0.7961"/>
					<stop  offset="1" style="stop-color:#F6F6F6;stop-opacity:0"/>
				</radialGradient>
				<path fill="url(#SVGID_15_)" d="M82.765,148.744l-0.3-0.648l1.4-0.551l0.25,0.648c0.33,0.771,0.5,1.551,0.5,2.352
					c0,1.801-0.65,3.33-1.95,4.602c-1.27,1.271-2.78,1.898-4.55,1.898c-1.73,0-3.22-0.58-4.45-1.75l-0.5-0.551l1-1.1l0.55,0.549
					c0.93,0.9,2.07,1.352,3.4,1.352c1.37,0,2.53-0.479,3.5-1.449c1-0.971,1.5-2.15,1.5-3.551
					C83.115,149.975,82.995,149.375,82.765,148.744z"/>
			</g>
		</g>
		<g>
			<g>
				
					<linearGradient id="SVGID_16_" gradientUnits="userSpaceOnUse" x1="-2636.1831" y1="1591.8223" x2="-2619.7871" y2="1591.8223" gradientTransform="matrix(0.7633 -0.646 0.646 0.7633 1095.1169 -2788.9248)">
					<stop  offset="0" style="stop-color:#B7B7B7"/>
					<stop  offset="0.2667" style="stop-color:#C9C9C9"/>
					<stop  offset="0.502" style="stop-color:#EBEBEB"/>
					<stop  offset="0.7098" style="stop-color:#C5C5C5"/>
					<stop  offset="1" style="stop-color:#ADADAD"/>
				</linearGradient>
				<path fill="url(#SVGID_16_)" d="M120.665,112.885c2.229,0,4.17,0.82,5.801,2.451c1.601,1.6,2.399,3.529,2.399,5.799
					c0,2.271-0.801,4.182-2.399,5.75c-1.631,1.631-3.569,2.451-5.801,2.451c-2.271,0-4.199-0.82-5.8-2.451
					c-1.631-1.568-2.45-3.479-2.45-5.75c0-2.27,0.819-4.199,2.45-5.799C116.466,113.705,118.396,112.885,120.665,112.885z"/>
			</g>
			<g>
				
					<radialGradient id="SVGID_17_" cx="-4494.8682" cy="-1724.6216" r="9.4506" gradientTransform="matrix(5.291005e-005 -1 -1 5.291005e-005 -1598.316 -4368.5396)" gradientUnits="userSpaceOnUse">
					<stop  offset="0" style="stop-color:#FFFFFF"/>
					<stop  offset="0.3333" style="stop-color:#FEFEFE;stop-opacity:0.7961"/>
					<stop  offset="1" style="stop-color:#F6F6F6;stop-opacity:0"/>
				</radialGradient>
				<path fill="url(#SVGID_17_)" d="M126.064,126.783c-1.5,1.473-3.301,2.201-5.399,2.201c-2.069,0-3.851-0.701-5.351-2.102
					l-0.602-0.648l1.199-1.201l0.648,0.602c1.102,1.068,2.472,1.602,4.102,1.602c1.602,0,2.979-0.58,4.148-1.75
					c1.17-1.131,1.75-2.521,1.75-4.148c0-0.771-0.131-1.5-0.398-2.199l-0.352-0.801l1.649-0.65l0.399,0.801
					c0.369,0.9,0.55,1.85,0.55,2.85c0,2.101-0.779,3.882-2.351,5.351v0.099h0.004v-0.005H126.064z"/>
			</g>
		</g>
	</g>
</g>
</svg>
