<?xml version="1.0" encoding="utf-8"?>
<!-- Generator: Adobe Illustrator 14.0.0, SVG Export Plug-In . SVG Version: 6.00 Build 43363)  -->
<!DOCTYPE svg PUBLIC "-//W3C//DTD SVG 1.1//EN" "http://www.w3.org/Graphics/SVG/1.1/DTD/svg11.dtd">
<svg version="1.1" id="Layer_1" xmlns="http://www.w3.org/2000/svg" xmlns:xlink="http://www.w3.org/1999/xlink" x="0px" y="0px"
	 width="238.961px" height="238.961px" viewBox="0 0 238.961 238.961" enable-background="new 0 0 238.961 238.961"
	 xml:space="preserve">
<g>
	<g>
		
			<linearGradient id="SVGID_1_" gradientUnits="userSpaceOnUse" x1="-1474.3008" y1="2611.752" x2="-1258.7397" y2="2649.0732" gradientTransform="matrix(1 0 0 1 1273.5879 -2238.9326)">
			<stop  offset="0" style="stop-color:#6E6E6E"/>
			<stop  offset="1" style="stop-color:#B8C2B7"/>
		</linearGradient>
		<path fill="url(#SVGID_1_)" d="M-117.867,319.18c17.329,6.869,29.67,18.949,37,36.25c7.201,17.229,7.221,34.6,0.051,52.1
			c-7.17,17.57-19.4,30.08-36.7,37.555c-17.396,7.6-34.8,7.945-52.198,1.049c-17.33-6.898-29.602-18.979-36.802-36.25
			c-7.229-17.17-7.278-34.529-0.148-52.104c7.13-17.526,19.37-30.066,36.7-37.6C-152.667,312.68-135.297,312.35-117.867,319.18z"/>
	</g>
	<g>
		<path fill="#FFFFFF" fill-opacity="0.498" d="M-155.968,377.729c0.632-0.896,1.33-1.699,2.102-2.396c1.229-1.104,2.631-2,4.2-2.7
			c0.67-0.271,1.33-0.474,2-0.604c2.729-0.771,5.521-0.6,8.351,0.5c0.602,0.199,1.149,0.474,1.649,0.804
			c2.67,1.366,4.629,3.47,5.896,6.3c1.435,3.33,1.5,6.672,0.2,10c-0.03,0.066-0.069,0.172-0.102,0.301
			c-0.069,0.131-0.121,0.279-0.148,0.449c-0.2,0.396-0.399,0.801-0.602,1.2c-0.671,1.301-1.604,2.42-2.804,3.351
			c-0.526,0.5-1.13,0.971-1.8,1.399c-0.569,0.366-1.2,0.696-1.896,1c-0.474,0.196-0.934,0.38-1.398,0.551v-0.051
			c-2.301,0.67-4.58,0.75-6.851,0.25c-0.632-0.134-1.271-0.319-1.899-0.554c-0.101,0-0.221-0.026-0.351-0.102
			c-1.432-0.601-2.729-1.398-3.899-2.398c-1.471-1.301-2.631-2.881-3.5-4.75c-0.7-1.672-1.07-3.316-1.101-4.946
			c-0.102-1.771,0.22-3.53,0.948-5.304C-156.698,379.259-156.368,378.499-155.968,377.729z M-153.468,375.777
			c-0.698,0.671-1.3,1.451-1.8,2.354c-0.47,0.671-0.83,1.37-1.101,2.101c-0.63,1.67-0.92,3.354-0.852,5.05
			c0.03,1.569,0.37,3.133,1,4.7c0.802,1.771,1.9,3.279,3.302,4.55c1.13,0.974,2.42,1.729,3.851,2.304c0.1,0.066,0.18,0.1,0.25,0.1
			c0.6,0.131,1.22,0.32,1.85,0.551c2.132,0.436,4.28,0.32,6.45-0.35c0.434-0.131,0.88-0.281,1.354-0.451
			c0.629-0.299,1.229-0.58,1.801-0.85c0.699-0.4,1.279-0.854,1.75-1.354c1.101-0.896,1.971-1.979,2.601-3.25
			c0.2-0.371,0.37-0.75,0.5-1.146c0.07-0.133,0.133-0.25,0.2-0.354c0.068-0.131,0.104-0.271,0.104-0.396
			c1.271-3.133,1.196-6.25-0.199-9.354c-1.17-2.801-3.029-4.851-5.604-6.146c-0.026,0-0.077,0-0.146,0
			c-0.37-0.271-0.819-0.475-1.354-0.604c-2.63-1.131-5.318-1.317-8.05-0.551c-0.601,0.131-1.221,0.33-1.851,0.6v-0.049
			C-150.948,373.898-152.297,374.749-153.468,375.777z M-154.518,362.379c1.432-0.63,2.852-1.08,4.25-1.354
			c4.932-1.17,9.88-0.801,14.854,1.104c1.026,0.396,1.979,0.816,2.852,1.25h0.05c4.899,2.7,8.5,6.67,10.804,11.896
			c2.67,6.07,2.816,12.129,0.446,18.199c-0.065,0.199-0.146,0.369-0.25,0.5c-0.101,0.33-0.18,0.629-0.25,0.898
			c-1.5,3.37-3.55,6.146-6.146,8.352c-1.932,1.729-4.25,3.148-6.95,4.25c-0.897,0.33-1.771,0.648-2.601,0.949
			c-0.13,0-0.229,0-0.304,0c-0.065,0-0.13,0-0.196,0c-0.13,0.102-0.279,0.18-0.449,0.25c-5,1.301-10.021,1.029-15.05-0.801
			c-0.131-0.029-0.28-0.104-0.45-0.199c-2.7-1.029-5.08-2.479-7.149-4.354c-2.771-2.271-4.898-5.197-6.398-8.801
			c-2.771-6.271-2.88-12.521-0.352-18.75c0.399-1.026,0.87-2.021,1.399-2.949c0.229-0.397,0.431-0.771,0.601-1.102
			C-163.047,367.527-159.288,364.408-154.518,362.379z M-154.218,362.979h-0.05c-4.63,1.931-8.278,4.951-10.95,9.051
			c-0.17,0.33-0.38,0.724-0.648,1.15c-0.47,0.93-0.92,1.879-1.352,2.85c-2.43,6.07-2.318,12.17,0.352,18.304
			c1.471,3.396,3.53,6.25,6.2,8.55c2,1.729,4.33,3.146,7,4.25c0.198,0.066,0.38,0.131,0.55,0.2c4.801,1.771,9.631,2,14.5,0.696
			c0.2,0,0.351-0.066,0.45-0.196c0.129-0.028,0.196-0.021,0.196,0.05c0.069-0.068,0.173-0.104,0.304-0.104
			c0.83-0.301,1.696-0.631,2.601-1c2.569-1.066,4.819-2.422,6.75-4.051c2.5-2.199,4.449-4.92,5.852-8.146
			c0.132-0.271,0.25-0.528,0.353-0.804c0.029-0.172,0.119-0.37,0.25-0.602c2.199-5.931,2.029-11.82-0.5-17.648
			c-2.229-5.066-5.75-8.881-10.551-11.446v-0.054c-0.83-0.471-1.729-0.896-2.699-1.301c-4.829-1.869-9.63-2.229-14.399-1.1
			C-151.448,361.898-152.848,362.35-154.218,362.979z M-127.968,355.43c6.634,3.469,11.48,8.75,14.554,15.85
			c3.568,8.13,3.777,16.318,0.646,24.554c-0.066,0.196-0.181,0.431-0.351,0.696c-0.13,0.369-0.271,0.729-0.399,1.104
			c-2,4.5-4.75,8.25-8.25,11.25c-2.63,2.37-5.72,4.277-9.25,5.75c-1.47,0.602-2.97,1.102-4.5,1.5
			c-3.729,1.066-7.479,1.432-11.25,1.102c-3.37-0.301-6.7-1.08-10-2.352c-1.2-0.5-2.47-1.078-3.8-1.75
			c-2.131-1.17-4.101-2.521-5.9-4.05c-3.698-3.104-6.578-7.028-8.648-11.804c-2.63-6.172-3.43-12.301-2.399-18.396
			c0.432-2.33,1.13-4.65,2.102-6.949c0.8-2,1.72-3.83,2.75-5.5c3.601-5.631,8.648-9.75,15.148-12.351
			c1.87-0.804,3.7-1.435,5.5-1.899c6.5-1.57,12.979-1.15,19.45,1.25c0.271,0.129,0.528,0.229,0.8,0.299
			C-130.468,354.197-129.197,354.759-127.968,355.43z M-114.117,371.579c-2.97-6.974-7.699-12.149-14.199-15.554
			c-1.2-0.67-2.431-1.25-3.7-1.75c-0.229-0.066-0.479-0.146-0.75-0.25c-6.329-2.301-12.681-2.721-19.05-1.25
			c-1.801,0.474-3.601,1.08-5.398,1.854v0.051c-6.4,2.6-11.352,6.649-14.852,12.149c-1.03,1.67-1.95,3.43-2.75,5.3
			c-0.898,2.301-1.58,4.6-2.051,6.896c-1.029,5.934-0.22,11.898,2.45,17.898c2.068,4.729,4.851,8.631,8.351,11.699
			c1.8,1.527,3.75,2.83,5.852,3.896c1.27,0.631,2.52,1.224,3.75,1.75c3.229,1.271,6.47,2.051,9.698,2.354
			c3.771,0.271,7.473-0.104,11.104-1.104c1.5-0.472,2.932-1.021,4.301-1.646c3.568-1.434,6.631-3.271,9.199-5.5
			c3.396-2.934,6.067-6.58,8-10.949c0.131-0.398,0.271-0.771,0.397-1.104c0.17-0.271,0.302-0.527,0.398-0.801
			C-110.396,387.499-110.646,379.509-114.117,371.579z M-125.367,336.579c13.301,5.229,22.75,14.276,28.352,27.146
			c5.629,12.93,5.779,25.9,0.449,38.9c-0.101,0.3-0.229,0.58-0.4,0.852c-0.1,0.271-0.18,0.528-0.25,0.801
			c-2.77,6.17-6.446,11.479-11.049,15.949c-4.397,4.229-9.701,7.648-15.897,10.25c-2.33,0.934-4.67,1.721-7,2.354
			c-10.771,2.934-21.629,2.25-32.604-2.053c-13.2-5.197-22.62-14.276-28.25-27.25c-5.601-12.932-5.75-25.881-0.45-38.85
			c1.2-3.031,2.632-5.801,4.302-8.301c5.431-8.771,13.181-15.229,23.25-19.4c2.698-1.129,5.38-2.029,8.05-2.699
			C-146.397,331.648-135.897,332.408-125.367,336.579z M-97.666,364.027c-5.568-12.629-14.871-21.565-27.899-26.799
			c-10.397-4.131-20.771-4.896-31.101-2.301c-2.63,0.67-5.271,1.551-7.899,2.65c-10.03,4.17-17.721,10.52-23.051,19.05
			c-1.569,2.565-2.979,5.33-4.25,8.3c-5.229,12.801-5.05,25.6,0.551,38.4c5.47,12.729,14.729,21.68,27.8,26.85
			c10.802,4.271,21.521,4.92,32.149,1.951c2.329-0.604,4.646-1.381,6.95-2.354c6.101-2.566,11.316-5.932,15.646-10.103
			c4.5-4.397,8.119-9.631,10.854-15.698c0.129-0.229,0.25-0.479,0.352-0.75c0.129-0.271,0.25-0.531,0.352-0.802
			C-91.986,389.561-92.137,376.759-97.666,364.027z M-116.218,352.129c4.673,3.971,8.304,9,10.901,15.1
			c4.698,10.67,4.85,21.379,0.448,32.15c-0.13,0.471-0.33,0.921-0.603,1.352c-4.328,10.028-11.729,17.25-22.197,21.648
			c-1.83,0.771-3.724,1.422-5.649,1.949c-8.972,2.5-18,1.947-27.101-1.648c-1.602-0.67-3.2-1.38-4.802-2.148
			c0-0.066-0.02-0.102-0.05-0.102l-0.05-0.101c-8.37-4.435-14.551-11.134-18.551-20.104c-0.399-1.029-0.75-2.07-1.05-3.102
			c-3.432-9.699-3.222-19.42,0.648-29.15c1.03-2.529,2.229-4.869,3.602-7c4.568-7.17,11-12.449,19.3-15.85
			c2.301-0.975,4.551-1.73,6.75-2.303c8.631-2.131,17.281-1.479,25.951,1.949C-123.897,346.607-119.747,349.059-116.218,352.129z
			 M-105.916,367.43c-2.568-5.931-6.148-10.851-10.75-14.75c-3.474-3-7.554-5.431-12.25-7.301c-8.5-3.33-17-3.98-25.5-1.949
			c-2.2,0.629-4.42,1.42-6.649,2.35c-8.229,3.33-14.57,8.529-19,15.604c-1.301,2.131-2.471,4.42-3.5,6.85
			c-3.87,9.57-4.12,19.129-0.75,28.701c0.369,1,0.75,2.021,1.149,3.051c3.898,8.802,9.95,15.398,18.148,19.802
			c0.069,0.067,0.12,0.118,0.149,0.147c1.53,0.771,3.12,1.471,4.75,2.102c8.83,3.529,17.729,4.055,26.701,1.555
			c1.868-0.5,3.681-1.131,5.446-1.898c10.271-4.271,17.57-11.33,21.899-21.2c0.171-0.472,0.351-0.921,0.55-1.353
			C-101.188,388.527-101.316,377.959-105.916,367.43z M-121.968,329.18c-12.229-4.871-24.418-5.75-36.55-2.65
			c-3.068,0.771-6.148,1.804-9.25,3.104c-14.398,6.066-24.75,16.08-31.05,30.051c-0.271,0.629-0.57,1.279-0.9,1.949
			c-6,15.1-5.778,30.102,0.65,45c6.47,14.932,17.35,25.422,32.649,31.451c12.5,4.971,25.021,5.729,37.55,2.299
			c2.729-0.729,5.45-1.684,8.146-2.854c11.673-4.83,20.673-12.271,27.001-22.299c1.932-3,3.58-6.223,4.949-9.647
			c6.17-15.134,6-30.134-0.5-45C-95.797,345.749-106.697,335.277-121.968,329.18z M-168.018,329.027
			c3.13-1.329,6.229-2.396,9.3-3.195c12.271-3.104,24.603-2.2,37,2.695c15.474,6.131,26.481,16.725,33.054,31.75
			c6.602,15.104,6.771,30.281,0.5,45.555c-1.369,3.5-3.053,6.75-5.053,9.75c-6.367,10.195-15.42,17.75-27.146,22.646
			c-2.801,1.17-5.579,2.104-8.354,2.799c-12.629,3.475-25.278,2.701-37.948-2.299c-15.5-6.102-26.521-16.729-33.052-31.896
			c-6.568-15.07-6.77-30.225-0.6-45.45c0.271-0.63,0.55-1.271,0.85-1.899C-193.138,345.309-182.647,335.158-168.018,329.027z"/>
	</g>
	<g>
		<path fill="#272727" d="M-124.817,335.43c13.369,5.299,22.851,14.379,28.449,27.25c5.601,13,5.729,26.049,0.397,39.149
			c-0.102,0.3-0.221,0.565-0.352,0.8v0.051c-0.131,0.27-0.229,0.52-0.301,0.75l-0.102,0.051
			c-2.697,6.129-6.396,11.449-11.101,15.949c-4.271,4.27-9.529,7.68-15.801,10.25c-2.729,1.17-5.449,2.051-8.149,2.648
			c-10.5,2.67-21.069,1.932-31.7-2.199c-13.271-5.271-22.72-14.398-28.35-27.398c-5.601-13.031-5.75-26.051-0.45-39.051
			c1.229-3,2.67-5.8,4.3-8.4c5.432-8.695,13.25-15.18,23.45-19.445c2.33-0.975,4.649-1.78,6.95-2.45
			C-146.698,330.479-135.788,331.158-124.817,335.43z M-105.666,366.629c-2.568-5.9-6.148-10.8-10.75-14.699
			c-3.399-3-7.45-5.431-12.149-7.301c-8.87-3.475-17.681-4-26.45-1.604c-1.83,0.57-3.648,1.229-5.448,2
			c-8.172,3.33-14.5,8.521-19,15.554c-1.37,2.101-2.53,4.366-3.5,6.8c-3.802,9.566-4.03,19.102-0.7,28.602
			c0.33,0.971,0.72,1.935,1.148,2.899c3.87,8.771,9.87,15.369,18,19.8c0.102,0.029,0.17,0.069,0.2,0.102
			c1.529,0.771,3.08,1.474,4.649,2.104c8.5,3.396,16.97,4.029,25.398,1.896c2.271-0.525,4.5-1.271,6.7-2.196
			c10.229-4.271,17.449-11.319,21.649-21.149c0.271-0.431,0.479-0.881,0.646-1.351C-100.997,387.55-101.137,377.059-105.666,366.629
			z M-115.566,351.079c4.67,3.97,8.33,9,11,15.101c4.67,10.729,4.771,21.52,0.299,32.35c-0.129,0.474-0.328,0.934-0.601,1.398
			c-4.368,10.069-11.779,17.303-22.25,21.699c-2.3,0.934-4.569,1.684-6.8,2.25c-8.67,2.17-17.38,1.553-26.149-1.854
			c-1.631-0.67-3.229-1.433-4.801-2.301c-0.029,0-0.08-0.021-0.149-0.052l-0.05-0.103c-8.4-4.471-14.57-11.197-18.5-20.197
			c-0.471-1.03-0.851-2.055-1.15-3.055c-3.47-9.801-3.25-19.577,0.65-29.35c1.029-2.5,2.229-4.83,3.6-7
			c4.57-7.229,11.07-12.57,19.5-16c1.932-0.83,3.82-1.479,5.65-1.949c9.069-2.529,18.119-2,27.149,1.604
			C-123.367,345.499-119.166,347.979-115.566,351.079z M-159.118,326.129c-2.729,0.7-5.43,1.62-8.102,2.75
			c-14.43,6.066-24.77,16.08-31,30.051c-0.27,0.629-0.528,1.27-0.8,1.899c-6.068,14.97-5.88,29.896,0.55,44.8
			c6.4,14.83,17.25,25.275,32.552,31.352c12.13,4.801,24.22,5.631,36.25,2.5c3.196-0.771,6.315-1.801,9.351-3.102
			c11.569-4.828,20.5-12.229,26.801-22.199c1.934-3.029,3.58-6.25,4.949-9.648c6.131-15.026,5.98-29.971-0.449-44.801
			c-6.5-14.799-17.397-25.22-32.698-31.25C-134.247,323.479-146.718,322.697-159.118,326.129z M-167.667,327.777
			c2.771-1.1,5.521-2.025,8.25-2.799c12.63-3.371,25.332-2.551,38.101,2.449c15.603,6.1,26.721,16.721,33.354,31.85
			c6.566,15.131,6.729,30.354,0.5,45.65c-1.434,3.5-3.104,6.778-5.001,9.85c-6.5,10.201-15.619,17.771-27.353,22.701
			c-3.2,1.299-6.37,2.354-9.5,3.148c-12.33,3.131-24.67,2.25-37-2.648c-15.601-6.102-26.648-16.75-33.148-31.951
			c-6.602-15.129-6.83-30.329-0.7-45.6c0.3-0.63,0.601-1.3,0.898-2C-192.897,344.259-182.368,334.049-167.667,327.777z
			 M-125.218,336.479c-10.729-4.229-21.43-4.896-32.1-2c-2.229,0.631-4.5,1.42-6.801,2.354c-9.93,4.17-17.569,10.521-22.899,19.05
			c-1.568,2.526-2.97,5.27-4.2,8.2c-5.17,12.729-4.979,25.472,0.552,38.196c5.431,12.67,14.648,21.604,27.648,26.805
			c10.37,4.066,20.671,4.799,30.899,2.195c2.7-0.67,5.381-1.566,8.051-2.695c6.069-2.475,11.229-5.779,15.501-9.951
			c4.527-4.369,8.148-9.568,10.85-15.604c0.133-0.271,0.25-0.526,0.354-0.801v-0.102c0.131-0.199,0.271-0.434,0.396-0.699
			c5.199-12.869,5.029-25.63-0.5-38.301C-102.967,350.527-112.217,341.648-125.218,336.479z M-152.868,375.027v-0.049
			c-0.67,0.699-1.271,1.47-1.8,2.299c-0.399,0.671-0.771,1.371-1.102,2.104c-0.601,1.63-0.88,3.276-0.851,4.95
			c0.03,1.566,0.398,3.1,1.101,4.6h-0.1c0.87,1.801,1.95,3.33,3.25,4.603v-0.103c1.131,0.933,2.381,1.7,3.75,2.301
			c0.101,0,0.2,0,0.301,0v0.052c0.569,0.198,1.149,0.384,1.75,0.554c1.8,0.396,3.6,0.396,5.399,0
			c0.729-0.17,1.521-0.436,2.351-0.804c0.63-0.271,1.221-0.552,1.75-0.853c0.63-0.47,1.221-0.897,1.75-1.3l0.05-0.05
			c1-0.87,1.819-1.9,2.45-3.104c0.17-0.396,0.33-0.78,0.5-1.146c0.069-0.174,0.119-0.33,0.149-0.5c0.026-0.029,0.08-0.12,0.146-0.25
			c1.271-3.104,1.223-6.184-0.146-9.25c-1.17-2.674-3-4.634-5.5-5.9h-0.104c-0.431-0.299-0.896-0.529-1.396-0.699
			c-2.604-1.068-5.25-1.25-7.951-0.551c-0.3,0.101-0.619,0.221-0.949,0.351c-0.301,0.03-0.57,0.104-0.801,0.2
			C-150.397,373.107-151.737,373.959-152.868,375.027z M-156.817,378.879c0.369-0.699,0.75-1.42,1.149-2.15
			c0.63-1,1.33-1.85,2.101-2.549c1.229-1.101,2.63-1.98,4.199-2.65c0.301-0.131,0.58-0.25,0.851-0.35l0.05-0.051
			c0.37-0.104,0.75-0.184,1.15-0.25h-0.05c2.87-0.771,5.729-0.604,8.601,0.5c0.604,0.2,1.13,0.471,1.604,0.801
			c2.771,1.43,4.801,3.579,6.102,6.449c1.37,3.37,1.398,6.729,0.104,10.102c-0.029,0.131-0.054,0.25-0.054,0.354
			c-0.101,0.13-0.17,0.275-0.196,0.446c-0.17,0.474-0.369,0.854-0.604,1.147v0.103c-0.729,1.329-1.646,2.474-2.75,3.397
			c-0.602,0.5-1.229,0.979-1.896,1.45c-0.604,0.33-1.229,0.646-1.899,0.95c-0.898,0.365-1.771,0.646-2.601,0.85
			c-1.934,0.4-3.899,0.4-5.899,0h-0.05c-0.63-0.199-1.229-0.379-1.8-0.55c-0.102-0.03-0.2-0.079-0.302-0.149
			c-1.528-0.564-2.88-1.368-4.05-2.396h-0.051c-1.43-1.304-2.6-2.95-3.5-4.95c-0.699-1.699-1.079-3.38-1.149-5.05
			C-157.837,382.527-157.518,380.709-156.817,378.879z M-150.667,361.229c-1,0.271-2,0.631-3,1.104
			c-4.67,1.866-8.28,4.815-10.852,8.851c-0.229,0.369-0.47,0.75-0.7,1.149c-0.47,0.97-0.92,1.92-1.35,2.851
			c-2.4,6.069-2.301,12.08,0.3,18.049c1.472,3.472,3.53,6.318,6.2,8.551c1.93,1.699,4.229,3.104,6.899,4.199
			c0.17,0.104,0.318,0.17,0.448,0.199h0.052c4.63,1.699,9.22,2.021,13.75,0.949c0.067-0.068,0.117-0.068,0.146,0h0.051
			c0.069-0.068,0.121-0.104,0.149-0.104c0.13-0.066,0.25-0.12,0.351-0.146c1.171-0.271,2.319-0.684,3.449-1.25h0.051
			c2.5-0.974,4.724-2.279,6.649-3.949c2.472-2.17,4.397-4.869,5.8-8.101c0.131-0.271,0.25-0.521,0.354-0.75
			c0.101-0.2,0.17-0.399,0.196-0.604c2.304-5.869,2.171-11.699-0.396-17.5c-2.199-5.029-5.671-8.83-10.399-11.399
			c-0.027,0-0.066,0-0.101,0c-0.83-0.5-1.72-0.946-2.649-1.351C-140.468,360.049-145.598,359.799-150.667,361.229z
			 M-154.218,361.229c1.102-0.396,2.182-0.77,3.25-1.1c5.4-1.529,10.771-1.23,16.103,0.896c1,0.33,1.95,0.771,2.851,1.304
			c4.973,2.696,8.62,6.696,10.95,12c2.63,6.065,2.778,12.146,0.449,18.25c-0.104,0.229-0.171,0.446-0.199,0.646
			c-0.17,0.229-0.279,0.479-0.351,0.75v0.104c-1.5,3.3-3.53,6.116-6.104,8.446c-2,1.67-4.351,3.068-7.05,4.199
			c-1.2,0.5-2.421,0.92-3.649,1.25h-0.198l-0.054,0.051c-0.101,0.029-0.196,0.054-0.301,0.054h-0.05
			c-4.801,1.17-9.631,0.88-14.5-0.854c-0.171-0.07-0.33-0.131-0.5-0.199c-2.801-1.066-5.221-2.551-7.25-4.446
			c-2.801-2.33-4.95-5.279-6.45-8.854c-2.8-6.33-2.92-12.646-0.351-18.949c0.398-1.026,0.87-2.021,1.398-2.946
			c0.271-0.474,0.5-0.884,0.7-1.25C-162.817,366.379-159.047,363.259-154.218,361.229z M-113.816,370.729
			c-2.973-6.896-7.682-12.069-14.151-15.5c-1.229-0.569-2.47-1.1-3.696-1.6c-0.229-0.104-0.479-0.199-0.75-0.3
			c-6.67-2.474-13.354-2.78-20.049-0.95h0.1c-1.43,0.471-2.869,0.971-4.3,1.5c-6.399,2.6-11.33,6.62-14.8,12.051
			c-1.03,1.67-1.95,3.469-2.75,5.399c-0.9,2.3-1.58,4.565-2.052,6.8c-0.93,5.896-0.12,11.83,2.45,17.801
			c2.029,4.67,4.819,8.551,8.352,11.649c1.771,1.471,3.698,2.721,5.8,3.75c1.271,0.67,2.479,1.271,3.648,1.8
			c3.229,1.271,6.472,2.05,9.7,2.352c3.33,0.271,6.63-0.021,9.898-0.852c1.83-0.5,3.646-1.104,5.446-1.8
			c3.474-1.476,6.48-3.304,9.054-5.5c3.396-2.899,6.051-6.57,7.946-11c0.173-0.33,0.32-0.685,0.451-1.054
			c0.103-0.271,0.199-0.521,0.299-0.75C-110.217,386.527-110.416,378.6-113.816,370.729z M-127.468,354.277
			c6.7,3.57,11.604,8.921,14.7,16.055c3.473,8.1,3.672,16.3,0.604,24.6c-0.068,0.229-0.17,0.479-0.303,0.75
			c-0.1,0.371-0.229,0.75-0.396,1.15l-0.104,0.05c-1.93,4.47-4.646,8.2-8.146,11.2c-2.631,2.327-5.779,4.271-9.449,5.8
			c-1.83,0.771-3.682,1.382-5.551,1.853c-3.369,0.869-6.819,1.147-10.35,0.854c-3.302-0.33-6.62-1.119-9.95-2.354
			c-1.3-0.566-2.58-1.182-3.852-1.853c-2.13-1.17-4.08-2.521-5.851-4.05c-3.729-3.2-6.63-7.2-8.699-12
			c-2.7-6.174-3.53-12.305-2.5-18.4c0.43-2.369,1.102-4.699,2-7c0.83-1.97,1.779-3.83,2.852-5.6c3.63-5.634,8.729-9.779,15.3-12.45
			c1.5-0.63,2.971-1.149,4.398-1.55c6.899-1.9,13.78-1.62,20.649,0.85h0.101c0.271,0.131,0.521,0.25,0.75,0.351
			C-129.938,353.059-128.666,353.648-127.468,354.277z"/>
	</g>
	<g>
		
			<radialGradient id="SVGID_2_" cx="-1523.4492" cy="-4070.2925" r="6.9706" gradientTransform="matrix(-0.3836 0.6338 -0.6204 -0.3611 -3218.802 -169.0641)" gradientUnits="userSpaceOnUse">
			<stop  offset="0" style="stop-color:#000000"/>
			<stop  offset="0.4784" style="stop-color:#000000;stop-opacity:0.7843"/>
			<stop  offset="0.5725" style="stop-color:#000000;stop-opacity:0.5765"/>
			<stop  offset="0.8" style="stop-color:#000000;stop-opacity:0.0275"/>
			<stop  offset="0.8824" style="stop-color:#000000;stop-opacity:0"/>
		</radialGradient>
		<path fill="url(#SVGID_2_)" d="M-106.438,339.039c-1.107,0.811-2.311,1.13-3.602,0.945c-1.318-0.17-2.357-0.789-3.107-1.855
			c-0.75-1.07-1-2.271-0.75-3.609c0.221-1.33,0.869-2.41,1.959-3.229c1.092-0.83,2.291-1.149,3.609-0.979
			c1.289,0.18,2.318,0.813,3.092,1.89c0.738,1.094,0.988,2.29,0.75,3.61C-104.707,337.158-105.357,338.229-106.438,339.039z"/>
		<g>
			
				<linearGradient id="SVGID_3_" gradientUnits="userSpaceOnUse" x1="-1383.73" y1="2570.585" x2="-1381.3041" y2="2576.1455" gradientTransform="matrix(1 0 0 1 1273.5879 -2238.9326)">
				<stop  offset="0" style="stop-color:#7E8396"/>
				<stop  offset="1" style="stop-color:#FDFDFB"/>
			</linearGradient>
			<path fill="url(#SVGID_3_)" d="M-106.117,333.277c0.301,0.771,0.301,1.531,0,2.305c-0.3,0.77-0.818,1.3-1.55,1.6
				c-0.771,0.371-1.569,0.4-2.399,0.101c-0.801-0.329-1.351-0.88-1.65-1.646c-0.366-0.73-0.395-1.48-0.1-2.25
				c0.33-0.771,0.899-1.33,1.699-1.701c0.771-0.299,1.53-0.279,2.301,0.051C-107.018,331.999-106.447,332.509-106.117,333.277z"/>
		</g>
		<g>
			
				<radialGradient id="SVGID_4_" cx="-1489.3853" cy="-3219.6108" r="3.4177" gradientTransform="matrix(-0.3802 0.9249 -0.9468 -0.3729 -3721.8865 511.4275)" gradientUnits="userSpaceOnUse">
				<stop  offset="0" style="stop-color:#FFFFFF"/>
				<stop  offset="0.3333" style="stop-color:#FEFEFE;stop-opacity:0.7961"/>
				<stop  offset="1" style="stop-color:#F6F6F6;stop-opacity:0"/>
			</radialGradient>
			<path fill="url(#SVGID_4_)" d="M-108.717,332.379c0.83,0.37,1.434,0.95,1.803,1.75c0.301,0.83,0.301,1.62,0,2.35
				c-0.104,0.431-0.277,0.78-0.553,1.051l-0.5,0.5l-1-0.85l0.5-0.551c0.133-0.17,0.23-0.37,0.303-0.604
				c0.197-0.396,0.182-0.851-0.053-1.351c-0.17-0.43-0.479-0.771-0.947-1c-0.432-0.13-0.898-0.13-1.398,0l-0.602,0.25l-0.5-1.2
				l0.602-0.35C-110.236,332.107-109.447,332.107-108.717,332.379z"/>
		</g>
	</g>
	<g>
		
			<radialGradient id="SVGID_5_" cx="-1523.4609" cy="-4070.2891" r="6.9772" gradientTransform="matrix(-0.3836 0.6338 -0.6204 -0.3611 -3218.8518 -73.1637)" gradientUnits="userSpaceOnUse">
			<stop  offset="0" style="stop-color:#000000"/>
			<stop  offset="0.4784" style="stop-color:#000000;stop-opacity:0.7843"/>
			<stop  offset="0.5725" style="stop-color:#000000;stop-opacity:0.5765"/>
			<stop  offset="0.8" style="stop-color:#000000;stop-opacity:0.0275"/>
			<stop  offset="0.8824" style="stop-color:#000000;stop-opacity:0"/>
		</radialGradient>
		<path fill="url(#SVGID_5_)" d="M-106.486,434.938c-1.109,0.814-2.313,1.131-3.602,0.951c-1.32-0.17-2.36-0.791-3.11-1.852
			c-0.75-1.068-1-2.271-0.75-3.609c0.222-1.33,0.87-2.41,1.962-3.229c1.09-0.828,2.288-1.146,3.607-0.979
			c1.291,0.18,2.316,0.811,3.09,1.891c0.74,1.09,0.99,2.289,0.75,3.609C-104.756,433.061-105.407,434.129-106.486,434.938z"/>
		<g>
			
				<linearGradient id="SVGID_6_" gradientUnits="userSpaceOnUse" x1="-1384.2866" y1="2667.3652" x2="-1381.8601" y2="2672.928" gradientTransform="matrix(1 0 0 1 1273.5879 -2238.9326)">
				<stop  offset="0" style="stop-color:#7E8396"/>
				<stop  offset="1" style="stop-color:#FDFDFB"/>
			</linearGradient>
			<path fill="url(#SVGID_6_)" d="M-108.367,428.527c0.829,0.305,1.396,0.781,1.7,1.451c0.369,0.771,0.369,1.568,0,2.398
				c-0.271,0.77-0.804,1.316-1.604,1.646c-0.771,0.328-1.526,0.328-2.299,0c-0.802-0.301-1.382-0.83-1.75-1.604
				c-0.33-0.801-0.353-1.58-0.052-2.354c0.328-0.729,0.88-1.25,1.646-1.551C-109.916,428.197-109.137,428.197-108.367,428.527z"/>
		</g>
		<g>
			
				<radialGradient id="SVGID_7_" cx="-1399.8794" cy="-3256.0762" r="3.4199" gradientTransform="matrix(-0.3802 0.9249 -0.9468 -0.3729 -3722.4802 511.1931)" gradientUnits="userSpaceOnUse">
				<stop  offset="0" style="stop-color:#FFFFFF"/>
				<stop  offset="0.3333" style="stop-color:#FEFEFE;stop-opacity:0.7961"/>
				<stop  offset="1" style="stop-color:#F6F6F6;stop-opacity:0"/>
			</radialGradient>
			<path fill="url(#SVGID_7_)" d="M-107.018,430.379h0.051c0.33,0.801,0.33,1.58,0,2.352c-0.129,0.33-0.328,0.648-0.6,0.949
				l-0.451,0.5l-1-0.852l0.451-0.5c0.129-0.174,0.25-0.383,0.35-0.648c0.172-0.398,0.133-0.852-0.1-1.352
				c-0.17-0.475-0.473-0.777-0.9-0.949c-0.471-0.17-0.947-0.184-1.447-0.051l-0.604,0.25l-0.449-1.148l0.604-0.352
				c0.771-0.27,1.551-0.229,2.352,0.102C-107.967,428.979-107.387,429.551-107.018,430.379z"/>
		</g>
	</g>
	<g>
		
			<radialGradient id="SVGID_8_" cx="-804.7427" cy="-2085.0313" r="84.7592" gradientTransform="matrix(-0.1932 0.9812 -0.9796 -0.1929 -2283.2896 740.8965)" gradientUnits="userSpaceOnUse">
			<stop  offset="0" style="stop-color:#FFFFFF"/>
			<stop  offset="1" style="stop-color:#FAFAFA;stop-opacity:0"/>
		</radialGradient>
		<path fill="url(#SVGID_8_)" d="M-78.217,394.879c3.57-18.07,0.23-34.699-10-49.9c-10.199-15.27-24.279-24.648-42.251-28.148
			c-18-3.434-34.646-0.03-49.948,10.195c-4.771,3.23-8.972,6.854-12.602,10.854c-0.13,0.13-0.3,0.181-0.5,0.146
			c-0.13,0.031-0.271-0.02-0.398-0.146c-0.069-0.13-0.13-0.271-0.2-0.399c0-0.131,0.07-0.271,0.2-0.396
			c3.698-4,7.97-7.65,12.8-10.949c15.57-10.4,32.521-13.871,50.851-10.4c18.229,3.57,32.569,13.119,43.001,28.65
			c10.369,15.43,13.729,32.35,10.104,50.75c-3.529,17.631-12.631,31.631-27.303,42c-0.131,0.102-0.271,0.145-0.396,0.145
			c-0.171-0.1-0.32-0.195-0.449-0.299c-0.103-0.131-0.147-0.27-0.147-0.396c0.101-0.174,0.196-0.305,0.301-0.398
			C-90.736,426.051-81.746,412.277-78.217,394.879z"/>
	</g>
	<g>
		
			<radialGradient id="SVGID_9_" cx="-3864.6636" cy="3282.3994" r="84.4857" gradientTransform="matrix(0.7364 -0.6766 0.6298 0.7225 571.047 -4615.2739)" gradientUnits="userSpaceOnUse">
			<stop  offset="0" style="stop-color:#FFFFFF"/>
			<stop  offset="1" style="stop-color:#FAFAFA;stop-opacity:0"/>
		</radialGradient>
		<path fill="url(#SVGID_9_)" d="M-142.817,315.777c-0.17,0.07-0.301,0.121-0.4,0.15c-16.93-0.1-31.918,5.83-44.948,17.801
			c-13.5,12.469-20.92,27.771-22.25,45.899c-1.399,18.13,3.63,33.817,15.101,47.05h0.05c7.87,8.971,17.2,15.051,28,18.25v1.102
			c-11.17-3.195-20.8-9.395-28.898-18.602c-11.675-13.47-16.785-29.449-15.355-47.949c1.37-18.431,8.92-33.931,22.649-46.5
			c13.229-12.17,28.45-18.201,45.647-18.101c0.134-0.069,0.271-0.03,0.4,0.101c0.1,0.104,0.17,0.271,0.199,0.5
			C-142.617,315.607-142.688,315.709-142.817,315.777z"/>
	</g>
</g>
<rect x="-211.975" y="314.844" fill="none" stroke="#FF0D0D" width="136.523" height="136.213"/>
</svg>
