<?xml version="1.0" encoding="utf-8"?>
<!-- Generator: Adobe Illustrator 14.0.0, SVG Export Plug-In . SVG Version: 6.00 Build 43363)  -->
<!DOCTYPE svg PUBLIC "-//W3C//DTD SVG 1.1//EN" "http://www.w3.org/Graphics/SVG/1.1/DTD/svg11.dtd">
<svg version="1.1" id="Layer_2" xmlns="http://www.w3.org/2000/svg" xmlns:xlink="http://www.w3.org/1999/xlink" x="0px" y="0px"
	 width="239px" height="239px" viewBox="0 0 239 239" enable-background="new 0 0 239 239" xml:space="preserve">
<g>
	<g>
		
			<linearGradient id="SVGID_1_" gradientUnits="userSpaceOnUse" x1="-1211.2813" y1="2348.7715" x2="-995.7202" y2="2386.0928" gradientTransform="matrix(1 0 0 1 1273.5879 -2238.9326)">
			<stop  offset="0" style="stop-color:#6E6E6E"/>
			<stop  offset="1" style="stop-color:#B8C2B7"/>
		</linearGradient>
		<path fill="url(#SVGID_1_)" d="M145.152,56.199c17.329,6.869,29.67,18.949,37,36.25c7.201,17.229,7.221,34.6,0.051,52.1
			c-7.17,17.57-19.399,30.08-36.699,37.555c-17.396,7.6-34.8,7.945-52.198,1.049c-17.33-6.898-29.602-18.979-36.802-36.25
			c-7.229-17.17-7.278-34.529-0.148-52.104c7.13-17.526,19.37-30.066,36.7-37.6C110.353,49.699,127.723,49.369,145.152,56.199z"/>
	</g>
	<g>
		<path fill="#FFFFFF" fill-opacity="0.498" d="M107.052,114.748c0.632-0.896,1.33-1.699,2.102-2.396c1.229-1.104,2.631-2,4.2-2.7
			c0.67-0.271,1.33-0.474,2-0.604c2.729-0.771,5.521-0.6,8.352,0.5c0.602,0.199,1.148,0.474,1.648,0.804
			c2.67,1.366,4.629,3.47,5.896,6.3c1.435,3.33,1.5,6.672,0.199,10c-0.029,0.066-0.068,0.172-0.102,0.301
			c-0.069,0.131-0.121,0.279-0.148,0.449c-0.199,0.396-0.398,0.801-0.602,1.2c-0.671,1.301-1.604,2.42-2.805,3.351
			c-0.525,0.5-1.129,0.971-1.799,1.399c-0.57,0.366-1.201,0.696-1.896,1c-0.475,0.196-0.934,0.38-1.398,0.551v-0.051
			c-2.301,0.67-4.58,0.75-6.851,0.25c-0.632-0.134-1.271-0.319-1.899-0.554c-0.101,0-0.221-0.026-0.351-0.102
			c-1.432-0.601-2.729-1.398-3.899-2.398c-1.471-1.301-2.631-2.881-3.5-4.75c-0.7-1.672-1.07-3.316-1.101-4.946
			c-0.102-1.771,0.22-3.53,0.948-5.304C106.321,116.278,106.651,115.519,107.052,114.748z M109.552,112.797
			c-0.698,0.671-1.3,1.451-1.8,2.354c-0.47,0.671-0.83,1.37-1.101,2.101c-0.63,1.67-0.92,3.354-0.852,5.05
			c0.03,1.569,0.37,3.133,1,4.7c0.802,1.771,1.9,3.279,3.302,4.55c1.13,0.974,2.42,1.729,3.851,2.304c0.1,0.066,0.18,0.1,0.25,0.1
			c0.6,0.131,1.22,0.32,1.85,0.551c2.132,0.436,4.28,0.32,6.45-0.35c0.434-0.131,0.879-0.281,1.354-0.451
			c0.629-0.299,1.229-0.58,1.801-0.85c0.699-0.4,1.279-0.854,1.75-1.354c1.102-0.896,1.971-1.979,2.602-3.25
			c0.199-0.371,0.369-0.75,0.5-1.146c0.07-0.133,0.133-0.25,0.199-0.354c0.068-0.131,0.104-0.271,0.104-0.396
			c1.271-3.133,1.196-6.25-0.199-9.354c-1.17-2.801-3.028-4.851-5.604-6.146c-0.025,0-0.076,0-0.146,0
			c-0.37-0.271-0.819-0.475-1.354-0.604c-2.629-1.131-5.317-1.317-8.049-0.551c-0.601,0.131-1.221,0.33-1.851,0.6v-0.049
			C112.071,110.918,110.723,111.769,109.552,112.797z M108.501,99.398c1.432-0.63,2.852-1.08,4.25-1.354
			c4.932-1.17,9.879-0.801,14.854,1.104c1.025,0.396,1.979,0.816,2.852,1.25h0.051c4.898,2.7,8.5,6.67,10.804,11.896
			c2.67,6.07,2.815,12.129,0.446,18.199c-0.065,0.199-0.146,0.369-0.25,0.5c-0.102,0.33-0.18,0.629-0.25,0.898
			c-1.5,3.37-3.551,6.146-6.146,8.352c-1.932,1.729-4.25,3.148-6.949,4.25c-0.897,0.33-1.771,0.648-2.602,0.949
			c-0.13,0-0.229,0-0.305,0c-0.064,0-0.129,0-0.195,0c-0.13,0.102-0.279,0.18-0.449,0.25c-5,1.301-10.021,1.029-15.05-0.801
			c-0.131-0.029-0.28-0.104-0.45-0.199c-2.7-1.029-5.08-2.479-7.149-4.354c-2.771-2.271-4.898-5.197-6.398-8.801
			c-2.771-6.271-2.88-12.521-0.352-18.75c0.399-1.026,0.87-2.021,1.399-2.949c0.229-0.397,0.431-0.771,0.601-1.102
			C99.973,104.547,103.731,101.428,108.501,99.398z M108.802,99.998h-0.05c-4.63,1.931-8.278,4.951-10.95,9.051
			c-0.17,0.33-0.38,0.724-0.648,1.15c-0.47,0.93-0.92,1.879-1.352,2.85c-2.43,6.07-2.318,12.17,0.352,18.304
			c1.471,3.396,3.53,6.25,6.2,8.55c2,1.729,4.33,3.146,7,4.25c0.198,0.066,0.38,0.131,0.55,0.2c4.801,1.771,9.631,2,14.5,0.696
			c0.2,0,0.351-0.066,0.45-0.196c0.129-0.028,0.195-0.021,0.195,0.05c0.07-0.068,0.174-0.104,0.305-0.104
			c0.83-0.301,1.695-0.631,2.602-1c2.568-1.066,4.818-2.422,6.75-4.051c2.5-2.199,4.448-4.92,5.852-8.146
			c0.132-0.271,0.25-0.528,0.354-0.804c0.028-0.172,0.118-0.37,0.25-0.602c2.198-5.931,2.028-11.82-0.5-17.648
			c-2.229-5.066-5.75-8.881-10.552-11.446v-0.054c-0.83-0.471-1.729-0.896-2.698-1.301c-4.83-1.869-9.631-2.229-14.399-1.1
			C111.571,98.918,110.171,99.369,108.802,99.998z M135.052,92.449c6.634,3.469,11.479,8.75,14.554,15.85
			c3.568,8.13,3.777,16.318,0.646,24.554c-0.066,0.196-0.182,0.431-0.352,0.696c-0.13,0.369-0.271,0.729-0.398,1.104
			c-2,4.5-4.75,8.25-8.25,11.25c-2.631,2.37-5.721,4.277-9.25,5.75c-1.471,0.602-2.971,1.102-4.5,1.5
			c-3.729,1.066-7.479,1.432-11.25,1.102c-3.37-0.301-6.7-1.08-10-2.352c-1.2-0.5-2.47-1.078-3.8-1.75
			c-2.131-1.17-4.101-2.521-5.9-4.05c-3.698-3.104-6.578-7.028-8.648-11.804c-2.63-6.172-3.43-12.301-2.399-18.396
			c0.432-2.33,1.13-4.65,2.102-6.949c0.8-2,1.72-3.83,2.75-5.5c3.601-5.631,8.648-9.75,15.148-12.351
			c1.87-0.804,3.7-1.435,5.5-1.899c6.5-1.57,12.979-1.15,19.451,1.25c0.271,0.129,0.527,0.229,0.799,0.299
			C132.552,91.217,133.822,91.778,135.052,92.449z M148.902,108.599c-2.97-6.974-7.699-12.149-14.199-15.554
			c-1.199-0.67-2.431-1.25-3.699-1.75c-0.229-0.066-0.479-0.146-0.75-0.25c-6.33-2.301-12.681-2.721-19.05-1.25
			c-1.801,0.474-3.601,1.08-5.398,1.854v0.051c-6.4,2.6-11.352,6.649-14.852,12.149c-1.03,1.67-1.95,3.43-2.75,5.3
			c-0.898,2.301-1.58,4.6-2.051,6.896c-1.029,5.934-0.22,11.898,2.45,17.898c2.068,4.729,4.851,8.631,8.351,11.699
			c1.8,1.527,3.75,2.83,5.852,3.896c1.27,0.631,2.52,1.224,3.75,1.75c3.229,1.271,6.47,2.051,9.698,2.354
			c3.771,0.271,7.473-0.104,11.104-1.104c1.5-0.472,2.932-1.021,4.301-1.646c3.568-1.434,6.631-3.271,9.199-5.5
			c3.396-2.934,6.066-6.58,8-10.949c0.131-0.398,0.271-0.771,0.396-1.104c0.17-0.271,0.303-0.527,0.398-0.801
			C152.623,124.519,152.373,116.528,148.902,108.599z M137.652,73.599c13.301,5.229,22.75,14.276,28.352,27.146
			c5.629,12.93,5.779,25.9,0.449,38.9c-0.101,0.3-0.229,0.58-0.399,0.852c-0.101,0.271-0.181,0.528-0.25,0.801
			c-2.771,6.17-6.446,11.479-11.05,15.949c-4.396,4.229-9.7,7.648-15.896,10.25c-2.33,0.934-4.67,1.721-7,2.354
			c-10.771,2.934-21.629,2.25-32.604-2.053c-13.2-5.197-22.62-14.276-28.25-27.25c-5.601-12.932-5.75-25.881-0.45-38.85
			c1.2-3.031,2.632-5.801,4.302-8.301c5.431-8.771,13.181-15.229,23.25-19.4c2.698-1.129,5.38-2.029,8.05-2.699
			C116.623,68.668,127.123,69.428,137.652,73.599z M165.354,101.047c-5.568-12.629-14.871-21.565-27.898-26.799
			c-10.397-4.131-20.771-4.896-31.102-2.301c-2.63,0.67-5.271,1.551-7.899,2.65c-10.03,4.17-17.721,10.52-23.051,19.05
			c-1.569,2.565-2.979,5.33-4.25,8.3c-5.229,12.801-5.05,25.6,0.551,38.4c5.47,12.729,14.729,21.68,27.8,26.85
			c10.802,4.271,21.521,4.92,32.149,1.951c2.329-0.604,4.646-1.381,6.95-2.354c6.102-2.566,11.316-5.932,15.646-10.103
			c4.5-4.397,8.119-9.631,10.854-15.698c0.129-0.229,0.25-0.479,0.352-0.75c0.129-0.271,0.25-0.531,0.353-0.802
			C171.033,126.58,170.883,113.778,165.354,101.047z M146.802,89.148c4.673,3.971,8.304,9,10.901,15.1
			c4.697,10.67,4.85,21.379,0.447,32.15c-0.13,0.471-0.33,0.921-0.604,1.352c-4.327,10.028-11.729,17.25-22.196,21.648
			c-1.83,0.771-3.724,1.422-5.649,1.949c-8.972,2.5-18,1.947-27.101-1.648c-1.602-0.67-3.2-1.38-4.802-2.148
			c0-0.066-0.02-0.102-0.05-0.102l-0.05-0.101c-8.37-4.435-14.551-11.134-18.551-20.104c-0.399-1.029-0.75-2.07-1.05-3.102
			c-3.432-9.699-3.222-19.42,0.648-29.15c1.03-2.529,2.229-4.869,3.602-7c4.568-7.17,11-12.449,19.3-15.85
			c2.301-0.975,4.551-1.73,6.75-2.303c8.631-2.131,17.281-1.479,25.951,1.949C139.123,83.627,143.272,86.078,146.802,89.148z
			 M157.104,104.449c-2.568-5.931-6.148-10.851-10.75-14.75c-3.475-3-7.555-5.431-12.25-7.301c-8.5-3.33-17-3.98-25.5-1.949
			c-2.2,0.629-4.42,1.42-6.649,2.35c-8.229,3.33-14.57,8.529-19,15.604c-1.301,2.131-2.471,4.42-3.5,6.85
			c-3.87,9.57-4.12,19.129-0.75,28.701c0.369,1,0.75,2.021,1.149,3.051c3.898,8.802,9.95,15.398,18.148,19.802
			c0.069,0.067,0.12,0.118,0.149,0.147c1.53,0.771,3.12,1.471,4.75,2.102c8.83,3.529,17.729,4.055,26.701,1.555
			c1.868-0.5,3.682-1.131,5.445-1.898c10.271-4.271,17.57-11.33,21.899-21.2c0.171-0.472,0.351-0.921,0.55-1.353
			C161.832,125.547,161.703,114.979,157.104,104.449z M141.052,66.199c-12.229-4.871-24.418-5.75-36.55-2.65
			c-3.068,0.771-6.148,1.804-9.25,3.104c-14.398,6.066-24.75,16.08-31.05,30.051c-0.271,0.629-0.57,1.279-0.9,1.949
			c-6,15.1-5.778,30.102,0.65,45c6.47,14.932,17.35,25.422,32.649,31.451c12.5,4.971,25.021,5.729,37.55,2.299
			c2.729-0.729,5.45-1.684,8.146-2.854c11.673-4.83,20.673-12.271,27-22.299c1.933-3,3.58-6.223,4.949-9.647
			c6.17-15.134,6-30.134-0.5-45C167.223,82.769,156.322,72.297,141.052,66.199z M95.001,66.047c3.13-1.329,6.229-2.396,9.3-3.195
			c12.271-3.104,24.603-2.2,37,2.695c15.474,6.131,26.481,16.725,33.054,31.75c6.602,15.104,6.771,30.281,0.5,45.555
			c-1.369,3.5-3.053,6.75-5.053,9.75c-6.367,10.195-15.42,17.75-27.146,22.646c-2.801,1.17-5.578,2.104-8.354,2.799
			c-12.629,3.475-25.278,2.701-37.948-2.299c-15.5-6.102-26.521-16.729-33.052-31.896c-6.568-15.07-6.77-30.225-0.6-45.45
			c0.271-0.63,0.55-1.271,0.85-1.899C69.881,82.328,80.373,72.178,95.001,66.047z"/>
	</g>
	<g>
		<path fill="#272727" d="M138.203,72.449c13.368,5.299,22.851,14.379,28.448,27.25c5.601,13,5.729,26.049,0.397,39.149
			c-0.103,0.3-0.221,0.565-0.353,0.8v0.051c-0.131,0.27-0.229,0.52-0.301,0.75l-0.103,0.051
			c-2.696,6.129-6.396,11.449-11.101,15.949c-4.271,4.27-9.528,7.68-15.801,10.25c-2.729,1.17-5.449,2.051-8.149,2.648
			c-10.5,2.67-21.069,1.932-31.7-2.199c-13.271-5.271-22.72-14.398-28.35-27.398c-5.601-13.031-5.75-26.051-0.45-39.051
			c1.229-3,2.67-5.8,4.3-8.4c5.432-8.695,13.25-15.18,23.45-19.445c2.33-0.975,4.649-1.78,6.95-2.45
			C116.321,67.498,127.231,68.178,138.203,72.449z M157.354,103.648c-2.568-5.9-6.148-10.8-10.75-14.699
			c-3.398-3-7.45-5.431-12.148-7.301c-8.871-3.475-17.682-4-26.451-1.604c-1.83,0.57-3.648,1.229-5.448,2
			c-8.172,3.33-14.5,8.521-19,15.554c-1.37,2.101-2.53,4.366-3.5,6.8c-3.802,9.566-4.03,19.102-0.7,28.602
			c0.33,0.971,0.72,1.935,1.148,2.899c3.87,8.771,9.87,15.369,18,19.8c0.102,0.029,0.17,0.069,0.2,0.102
			c1.529,0.771,3.08,1.474,4.649,2.104c8.5,3.396,16.971,4.029,25.398,1.896c2.271-0.525,4.5-1.271,6.699-2.196
			c10.229-4.271,17.449-11.319,21.649-21.149c0.271-0.431,0.479-0.881,0.646-1.351C162.022,124.569,161.883,114.078,157.354,103.648
			z M147.453,88.099c4.67,3.97,8.33,9,11,15.101c4.67,10.729,4.771,21.52,0.299,32.35c-0.129,0.474-0.328,0.934-0.601,1.398
			c-4.368,10.069-11.778,17.303-22.25,21.699c-2.3,0.934-4.569,1.684-6.8,2.25c-8.67,2.17-17.38,1.553-26.149-1.854
			c-1.631-0.67-3.229-1.433-4.801-2.301c-0.029,0-0.08-0.021-0.149-0.052l-0.05-0.103c-8.4-4.471-14.57-11.197-18.5-20.197
			c-0.471-1.03-0.851-2.055-1.15-3.055c-3.47-9.801-3.25-19.577,0.65-29.35c1.029-2.5,2.229-4.83,3.6-7
			c4.57-7.229,11.07-12.57,19.5-16c1.932-0.83,3.82-1.479,5.65-1.949c9.069-2.529,18.119-2,27.149,1.604
			C139.652,82.519,143.854,84.998,147.453,88.099z M103.901,63.148c-2.729,0.7-5.43,1.62-8.102,2.75
			c-14.43,6.066-24.77,16.08-31,30.051c-0.27,0.629-0.528,1.27-0.8,1.899c-6.068,14.97-5.88,29.896,0.55,44.8
			c6.4,14.83,17.25,25.275,32.552,31.352c12.13,4.801,24.22,5.631,36.25,2.5c3.195-0.771,6.314-1.801,9.352-3.102
			c11.568-4.828,20.5-12.229,26.801-22.199c1.934-3.029,3.58-6.25,4.949-9.648c6.131-15.026,5.979-29.971-0.449-44.801
			c-6.5-14.799-17.397-25.22-32.698-31.25C128.772,60.498,116.302,59.717,103.901,63.148z M95.353,64.797
			c2.771-1.1,5.521-2.025,8.25-2.799c12.63-3.371,25.332-2.551,38.101,2.449c15.604,6.1,26.721,16.721,33.354,31.85
			c6.565,15.131,6.729,30.354,0.5,45.65c-1.435,3.5-3.104,6.778-5.001,9.85c-6.5,10.201-15.619,17.771-27.354,22.701
			c-3.199,1.299-6.369,2.354-9.5,3.148c-12.33,3.131-24.669,2.25-37-2.648c-15.601-6.102-26.648-16.75-33.148-31.951
			c-6.602-15.129-6.83-30.329-0.7-45.6c0.3-0.63,0.601-1.3,0.898-2C70.123,81.278,80.651,71.068,95.353,64.797z M137.802,73.498
			c-10.729-4.229-21.43-4.896-32.1-2c-2.229,0.631-4.5,1.42-6.801,2.354c-9.93,4.17-17.569,10.521-22.899,19.05
			c-1.568,2.526-2.97,5.27-4.2,8.2c-5.17,12.729-4.979,25.472,0.552,38.196c5.431,12.67,14.648,21.604,27.648,26.805
			c10.37,4.066,20.67,4.799,30.899,2.195c2.7-0.67,5.381-1.566,8.051-2.695c6.069-2.475,11.229-5.779,15.502-9.951
			c4.526-4.369,8.147-9.568,10.85-15.604c0.133-0.271,0.25-0.526,0.354-0.801v-0.102c0.131-0.199,0.271-0.434,0.396-0.699
			c5.199-12.869,5.029-25.63-0.5-38.301C160.053,87.547,150.803,78.668,137.802,73.498z M110.151,112.047v-0.049
			c-0.67,0.699-1.271,1.47-1.8,2.299c-0.399,0.671-0.771,1.371-1.102,2.104c-0.601,1.63-0.88,3.276-0.851,4.95
			c0.03,1.566,0.398,3.1,1.101,4.6h-0.1c0.87,1.801,1.95,3.33,3.25,4.603v-0.103c1.131,0.933,2.381,1.7,3.75,2.301
			c0.101,0,0.2,0,0.301,0v0.052c0.569,0.198,1.149,0.384,1.75,0.554c1.8,0.396,3.6,0.396,5.399,0
			c0.729-0.17,1.521-0.436,2.352-0.804c0.629-0.271,1.221-0.552,1.75-0.853c0.629-0.47,1.221-0.897,1.75-1.3l0.049-0.05
			c1-0.87,1.819-1.9,2.451-3.104c0.17-0.396,0.329-0.78,0.5-1.146c0.068-0.174,0.118-0.33,0.148-0.5
			c0.025-0.029,0.08-0.12,0.146-0.25c1.271-3.104,1.223-6.184-0.146-9.25c-1.17-2.674-3-4.634-5.5-5.9h-0.104
			c-0.432-0.299-0.896-0.529-1.396-0.699c-2.604-1.068-5.25-1.25-7.951-0.551c-0.3,0.101-0.619,0.221-0.949,0.351
			c-0.301,0.03-0.57,0.104-0.801,0.2C112.623,110.127,111.283,110.979,110.151,112.047z M106.203,115.898
			c0.369-0.699,0.75-1.42,1.149-2.15c0.63-1,1.33-1.85,2.101-2.549c1.229-1.101,2.63-1.98,4.199-2.65
			c0.301-0.131,0.58-0.25,0.851-0.35l0.05-0.051c0.37-0.104,0.75-0.184,1.15-0.25h-0.05c2.87-0.771,5.729-0.604,8.602,0.5
			c0.604,0.2,1.129,0.471,1.604,0.801c2.771,1.43,4.801,3.579,6.102,6.449c1.371,3.37,1.398,6.729,0.104,10.102
			c-0.028,0.131-0.054,0.25-0.054,0.354c-0.102,0.13-0.17,0.275-0.196,0.446c-0.17,0.474-0.369,0.854-0.604,1.147v0.103
			c-0.729,1.329-1.646,2.474-2.75,3.397c-0.602,0.5-1.229,0.979-1.896,1.45c-0.604,0.33-1.229,0.646-1.899,0.95
			c-0.897,0.365-1.771,0.646-2.601,0.85c-1.935,0.4-3.899,0.4-5.899,0h-0.05c-0.63-0.199-1.229-0.379-1.8-0.55
			c-0.102-0.03-0.2-0.079-0.302-0.149c-1.528-0.564-2.88-1.368-4.05-2.396h-0.051c-1.43-1.304-2.6-2.95-3.5-4.95
			c-0.699-1.699-1.079-3.38-1.149-5.05C105.183,119.547,105.501,117.729,106.203,115.898z M112.353,98.248c-1,0.271-2,0.631-3,1.104
			c-4.67,1.866-8.28,4.815-10.852,8.851c-0.229,0.369-0.47,0.75-0.7,1.149c-0.47,0.97-0.92,1.92-1.35,2.851
			c-2.4,6.069-2.301,12.08,0.3,18.049c1.472,3.472,3.53,6.318,6.2,8.551c1.93,1.699,4.229,3.104,6.899,4.199
			c0.17,0.104,0.318,0.17,0.448,0.199h0.052c4.63,1.699,9.22,2.021,13.75,0.949c0.066-0.068,0.117-0.068,0.146,0h0.051
			c0.068-0.068,0.121-0.104,0.148-0.104c0.131-0.066,0.25-0.12,0.352-0.146c1.17-0.271,2.318-0.684,3.449-1.25h0.051
			c2.5-0.974,4.724-2.279,6.648-3.949c2.473-2.17,4.396-4.869,5.801-8.101c0.131-0.271,0.25-0.521,0.354-0.75
			c0.102-0.2,0.17-0.399,0.195-0.604c2.305-5.869,2.172-11.699-0.396-17.5c-2.198-5.029-5.671-8.83-10.399-11.399
			c-0.026,0-0.065,0-0.101,0c-0.83-0.5-1.72-0.946-2.649-1.351C122.552,97.068,117.421,96.818,112.353,98.248z M108.802,98.248
			c1.102-0.396,2.182-0.77,3.25-1.1c5.4-1.529,10.771-1.23,16.103,0.896c1,0.33,1.95,0.771,2.852,1.304
			c4.973,2.696,8.619,6.696,10.949,12c2.631,6.065,2.778,12.146,0.449,18.25c-0.104,0.229-0.171,0.446-0.199,0.646
			c-0.17,0.229-0.278,0.479-0.351,0.75v0.104c-1.5,3.3-3.53,6.116-6.104,8.446c-2,1.67-4.351,3.068-7.049,4.199
			c-1.201,0.5-2.422,0.92-3.649,1.25h-0.198l-0.055,0.051c-0.1,0.029-0.195,0.054-0.301,0.054h-0.049
			c-4.802,1.17-9.632,0.88-14.5-0.854c-0.171-0.07-0.33-0.131-0.5-0.199c-2.801-1.066-5.221-2.551-7.25-4.446
			c-2.801-2.33-4.95-5.279-6.45-8.854c-2.8-6.33-2.92-12.646-0.351-18.949c0.398-1.026,0.87-2.021,1.398-2.946
			c0.271-0.474,0.5-0.884,0.7-1.25C100.203,103.398,103.973,100.278,108.802,98.248z M149.203,107.748
			c-2.973-6.896-7.682-12.069-14.15-15.5c-1.229-0.569-2.471-1.1-3.696-1.6c-0.229-0.104-0.479-0.199-0.75-0.3
			c-6.67-2.474-13.354-2.78-20.049-0.95h0.1c-1.43,0.471-2.869,0.971-4.3,1.5c-6.399,2.6-11.33,6.62-14.8,12.051
			c-1.03,1.67-1.95,3.469-2.75,5.399c-0.9,2.3-1.58,4.565-2.052,6.8c-0.93,5.896-0.12,11.83,2.45,17.801
			c2.029,4.67,4.819,8.551,8.352,11.649c1.771,1.471,3.698,2.721,5.8,3.75c1.271,0.67,2.479,1.271,3.648,1.8
			c3.229,1.271,6.472,2.05,9.7,2.352c3.33,0.271,6.63-0.021,9.898-0.852c1.83-0.5,3.646-1.104,5.445-1.8
			c3.475-1.476,6.48-3.304,9.055-5.5c3.396-2.899,6.051-6.57,7.945-11c0.174-0.33,0.32-0.685,0.451-1.054
			c0.104-0.271,0.199-0.521,0.299-0.75C152.803,123.547,152.604,115.619,149.203,107.748z M135.552,91.297
			c6.7,3.57,11.604,8.921,14.7,16.055c3.473,8.1,3.672,16.3,0.604,24.6c-0.068,0.229-0.17,0.479-0.303,0.75
			c-0.1,0.371-0.229,0.75-0.396,1.15l-0.104,0.05c-1.93,4.47-4.646,8.2-8.146,11.2c-2.631,2.327-5.779,4.271-9.449,5.8
			c-1.83,0.771-3.682,1.382-5.551,1.853c-3.369,0.869-6.818,1.147-10.35,0.854c-3.302-0.33-6.62-1.119-9.95-2.354
			c-1.3-0.566-2.58-1.182-3.852-1.853c-2.13-1.17-4.08-2.521-5.851-4.05c-3.729-3.2-6.63-7.2-8.699-12
			c-2.7-6.174-3.53-12.305-2.5-18.4c0.43-2.369,1.102-4.699,2-7c0.83-1.97,1.779-3.83,2.852-5.6c3.63-5.634,8.729-9.779,15.3-12.45
			c1.5-0.63,2.971-1.149,4.398-1.55c6.899-1.9,13.781-1.62,20.649,0.85h0.101c0.271,0.131,0.521,0.25,0.75,0.351
			C133.082,90.078,134.354,90.668,135.552,91.297z"/>
	</g>
	<g>
		
			<radialGradient id="SVGID_2_" cx="-2008.894" cy="-4194.0254" r="6.9705" gradientTransform="matrix(-0.3836 0.6338 -0.6204 -0.3611 -3218.7627 -169.0499)" gradientUnits="userSpaceOnUse">
			<stop  offset="0" style="stop-color:#000000"/>
			<stop  offset="0.4784" style="stop-color:#000000;stop-opacity:0.7843"/>
			<stop  offset="0.5725" style="stop-color:#000000;stop-opacity:0.5765"/>
			<stop  offset="0.8" style="stop-color:#000000;stop-opacity:0.0275"/>
			<stop  offset="0.8824" style="stop-color:#000000;stop-opacity:0"/>
		</radialGradient>
		<path fill="url(#SVGID_2_)" d="M156.582,76.059c-1.107,0.811-2.312,1.13-3.603,0.945c-1.317-0.17-2.356-0.789-3.106-1.855
			c-0.75-1.07-1-2.271-0.75-3.609c0.221-1.33,0.869-2.41,1.959-3.229c1.092-0.83,2.291-1.149,3.608-0.979
			c1.289,0.18,2.317,0.813,3.093,1.89c0.737,1.094,0.987,2.29,0.75,3.61C158.313,74.178,157.662,75.248,156.582,76.059z"/>
		<g>
			
				<linearGradient id="SVGID_3_" gradientUnits="userSpaceOnUse" x1="-1120.71" y1="2307.6055" x2="-1118.2844" y2="2313.165" gradientTransform="matrix(1 0 0 1 1273.5879 -2238.9326)">
				<stop  offset="0" style="stop-color:#7E8396"/>
				<stop  offset="1" style="stop-color:#FDFDFB"/>
			</linearGradient>
			<path fill="url(#SVGID_3_)" d="M156.902,70.297c0.301,0.771,0.301,1.531,0,2.305c-0.3,0.77-0.818,1.3-1.55,1.6
				c-0.771,0.371-1.569,0.4-2.399,0.101c-0.801-0.329-1.351-0.88-1.649-1.646c-0.366-0.73-0.396-1.48-0.101-2.25
				c0.33-0.771,0.899-1.33,1.699-1.701c0.771-0.299,1.53-0.279,2.301,0.051C156.002,69.019,156.572,69.528,156.902,70.297z"/>
		</g>
		<g>
			
				<radialGradient id="SVGID_4_" cx="-1830.4868" cy="-3360.3877" r="3.4177" gradientTransform="matrix(-0.3802 0.9249 -0.9468 -0.3729 -3721.8408 511.4362)" gradientUnits="userSpaceOnUse">
				<stop  offset="0" style="stop-color:#FFFFFF"/>
				<stop  offset="0.3333" style="stop-color:#FEFEFE;stop-opacity:0.7961"/>
				<stop  offset="1" style="stop-color:#F6F6F6;stop-opacity:0"/>
			</radialGradient>
			<path fill="url(#SVGID_4_)" d="M154.303,69.398c0.83,0.37,1.434,0.95,1.803,1.75c0.301,0.83,0.301,1.62,0,2.35
				c-0.104,0.431-0.277,0.78-0.553,1.051l-0.5,0.5l-1-0.85l0.5-0.551c0.133-0.17,0.23-0.37,0.303-0.604
				c0.197-0.396,0.182-0.851-0.053-1.351c-0.17-0.43-0.479-0.771-0.947-1c-0.432-0.13-0.898-0.13-1.398,0l-0.602,0.25l-0.5-1.2
				l0.602-0.35C152.783,69.127,153.572,69.127,154.303,69.398z"/>
		</g>
	</g>
	<g>
		
			<radialGradient id="SVGID_5_" cx="-2008.9063" cy="-4194.0215" r="6.9774" gradientTransform="matrix(-0.3836 0.6338 -0.6204 -0.3611 -3218.8125 -73.1495)" gradientUnits="userSpaceOnUse">
			<stop  offset="0" style="stop-color:#000000"/>
			<stop  offset="0.4784" style="stop-color:#000000;stop-opacity:0.7843"/>
			<stop  offset="0.5725" style="stop-color:#000000;stop-opacity:0.5765"/>
			<stop  offset="0.8" style="stop-color:#000000;stop-opacity:0.0275"/>
			<stop  offset="0.8824" style="stop-color:#000000;stop-opacity:0"/>
		</radialGradient>
		<path fill="url(#SVGID_5_)" d="M156.533,171.957c-1.109,0.814-2.313,1.131-3.602,0.951c-1.32-0.17-2.36-0.791-3.11-1.852
			c-0.75-1.068-1-2.271-0.75-3.609c0.222-1.33,0.87-2.41,1.962-3.229c1.09-0.828,2.288-1.146,3.607-0.979
			c1.291,0.18,2.316,0.811,3.09,1.891c0.74,1.09,0.99,2.289,0.75,3.609C158.264,170.08,157.612,171.148,156.533,171.957z"/>
		<g>
			
				<linearGradient id="SVGID_6_" gradientUnits="userSpaceOnUse" x1="-1121.2676" y1="2404.3848" x2="-1118.8411" y2="2409.9475" gradientTransform="matrix(1 0 0 1 1273.5879 -2238.9326)">
				<stop  offset="0" style="stop-color:#7E8396"/>
				<stop  offset="1" style="stop-color:#FDFDFB"/>
			</linearGradient>
			<path fill="url(#SVGID_6_)" d="M154.652,165.547c0.829,0.305,1.396,0.781,1.7,1.451c0.369,0.771,0.369,1.568,0,2.398
				c-0.271,0.77-0.804,1.316-1.604,1.646c-0.771,0.328-1.525,0.328-2.299,0c-0.802-0.301-1.382-0.83-1.75-1.604
				c-0.33-0.801-0.353-1.58-0.052-2.354c0.328-0.729,0.88-1.25,1.646-1.551C153.104,165.217,153.883,165.217,154.652,165.547z"/>
		</g>
		<g>
			
				<radialGradient id="SVGID_7_" cx="-1740.981" cy="-3396.853" r="3.4202" gradientTransform="matrix(-0.3802 0.9249 -0.9468 -0.3729 -3722.4346 511.2019)" gradientUnits="userSpaceOnUse">
				<stop  offset="0" style="stop-color:#FFFFFF"/>
				<stop  offset="0.3333" style="stop-color:#FEFEFE;stop-opacity:0.7961"/>
				<stop  offset="1" style="stop-color:#F6F6F6;stop-opacity:0"/>
			</radialGradient>
			<path fill="url(#SVGID_7_)" d="M156.002,167.398h0.051c0.33,0.801,0.33,1.58,0,2.352c-0.129,0.33-0.328,0.648-0.6,0.949
				l-0.451,0.5l-1-0.852l0.451-0.5c0.129-0.174,0.25-0.383,0.35-0.648c0.172-0.398,0.133-0.852-0.1-1.352
				c-0.17-0.475-0.474-0.777-0.9-0.949c-0.471-0.17-0.947-0.184-1.447-0.051l-0.604,0.25l-0.449-1.148l0.604-0.352
				c0.771-0.27,1.551-0.229,2.352,0.102C155.053,165.998,155.633,166.57,156.002,167.398z"/>
		</g>
	</g>
	<g>
		
			<radialGradient id="SVGID_8_" cx="-1113.5684" cy="-2292.5771" r="84.759" gradientTransform="matrix(-0.1932 0.9812 -0.9796 -0.1929 -2283.2471 740.9006)" gradientUnits="userSpaceOnUse">
			<stop  offset="0" style="stop-color:#FFFFFF"/>
			<stop  offset="1" style="stop-color:#FAFAFA;stop-opacity:0"/>
		</radialGradient>
		<path fill="url(#SVGID_8_)" d="M184.803,131.898c3.57-18.07,0.23-34.699-10-49.9c-10.199-15.27-24.279-24.648-42.251-28.148
			c-18-3.434-34.646-0.03-49.948,10.195c-4.771,3.23-8.972,6.854-12.602,10.854c-0.13,0.13-0.3,0.181-0.5,0.146
			c-0.13,0.031-0.271-0.02-0.398-0.146c-0.069-0.13-0.13-0.271-0.2-0.399c0-0.131,0.07-0.271,0.2-0.396
			c3.698-4,7.97-7.65,12.8-10.949c15.57-10.4,32.521-13.871,50.851-10.4c18.229,3.57,32.57,13.119,43.002,28.65
			c10.369,15.43,13.729,32.35,10.104,50.75c-3.529,17.631-12.631,31.631-27.303,42c-0.131,0.102-0.271,0.145-0.396,0.145
			c-0.17-0.1-0.32-0.195-0.449-0.299c-0.103-0.131-0.146-0.27-0.146-0.396c0.102-0.174,0.196-0.305,0.301-0.398
			C172.283,163.07,181.273,149.297,184.803,131.898z"/>
	</g>
	<g>
		
			<radialGradient id="SVGID_9_" cx="-3493.4634" cy="3266.0059" r="84.4854" gradientTransform="matrix(0.7364 -0.6766 0.6298 0.7225 571.0399 -4615.2554)" gradientUnits="userSpaceOnUse">
			<stop  offset="0" style="stop-color:#FFFFFF"/>
			<stop  offset="1" style="stop-color:#FAFAFA;stop-opacity:0"/>
		</radialGradient>
		<path fill="url(#SVGID_9_)" d="M120.203,52.797c-0.17,0.07-0.302,0.121-0.4,0.15c-16.93-0.1-31.918,5.83-44.948,17.801
			c-13.5,12.469-20.92,27.771-22.25,45.899c-1.399,18.13,3.63,33.817,15.101,47.05h0.05c7.87,8.971,17.2,15.051,28,18.25v1.102
			c-11.17-3.195-20.8-9.395-28.898-18.602c-11.675-13.47-16.785-29.449-15.355-47.949c1.37-18.431,8.92-33.931,22.649-46.5
			c13.229-12.17,28.45-18.201,45.647-18.101c0.134-0.069,0.271-0.03,0.401,0.101c0.1,0.104,0.17,0.271,0.198,0.5
			C120.402,52.627,120.332,52.729,120.203,52.797z"/>
	</g>
</g>
<g>
	<g>
		<g>
			<g>
				
					<linearGradient id="SVGID_10_" gradientUnits="userSpaceOnUse" x1="-512.9502" y1="301.3447" x2="-450.4208" y2="301.3447" gradientTransform="matrix(0.9999 -0.0123 0.0123 0.9999 574.7229 -185.9738)">
					<stop  offset="0" style="stop-color:#000000"/>
					<stop  offset="1" style="stop-color:#4F504F"/>
				</linearGradient>
				<rect x="68.89" y="115.74" fill="url(#SVGID_10_)" width="55.799" height="11.05"/>
			</g>
			<g>
				
					<linearGradient id="SVGID_11_" gradientUnits="userSpaceOnUse" x1="-2118.0024" y1="36.0908" x2="-2057.7024" y2="36.0908" gradientTransform="matrix(1.658375e-005 -1 1 -0.001 41.6842 -1970.2722)">
					<stop  offset="0" style="stop-color:#000000"/>
					<stop  offset="1" style="stop-color:#4F504F"/>
				</linearGradient>
				<rect x="68.99" y="81.44" fill="url(#SVGID_11_)" width="17.5" height="79.85"/>
			</g>
		</g>
		<g>
			
				<linearGradient id="SVGID_12_" gradientUnits="userSpaceOnUse" x1="-2102.8594" y1="78.4683" x2="-2080.833" y2="78.4683" gradientTransform="matrix(4.540295e-005 -1 1 -0.001 41.7171 -1970.2722)">
				<stop  offset="0" style="stop-color:#000000"/>
				<stop  offset="1" style="stop-color:#4F504F"/>
			</linearGradient>
			<path fill="url(#SVGID_12_)" d="M112.24,113.54c2.17-2.17,4.8-3.25,7.9-3.25c3.1,0,5.719,1.08,7.85,3.25
				c2.13,2.1,3.199,4.72,3.199,7.851c0,3.069-1.069,5.68-3.199,7.85c-2.131,2.1-4.75,3.15-7.85,3.15c-3.101,0-5.73-1.051-7.9-3.15
				c-2.17-2.17-3.25-4.78-3.25-7.85C108.99,118.26,110.07,115.65,112.24,113.54z"/>
		</g>
		<g>
			<g>
				
					<linearGradient id="SVGID_13_" gradientUnits="userSpaceOnUse" x1="-1241.5898" y1="485.916" x2="-1227.8254" y2="485.916" gradientTransform="matrix(0.7628 -0.6466 0.6466 0.7628 702.9199 -1073.7008)">
					<stop  offset="0" style="stop-color:#B7B7B7"/>
					<stop  offset="0.2667" style="stop-color:#C9C9C9"/>
					<stop  offset="0.502" style="stop-color:#EBEBEB"/>
					<stop  offset="0.7098" style="stop-color:#C5C5C5"/>
					<stop  offset="1" style="stop-color:#ADADAD"/>
				</linearGradient>
				<path fill="url(#SVGID_13_)" d="M82.64,98.04c-1.33,1.33-2.95,2-4.85,2c-1.87,0-3.48-0.67-4.85-2c-1.33-1.37-2-2.98-2-4.85
					c0-1.9,0.67-3.52,2-4.85c1.37-1.37,2.98-2.05,4.85-2.05c1.9,0,3.52,0.68,4.85,2.05c1.37,1.33,2.05,2.95,2.05,4.85
					C84.69,95.06,84.01,96.68,82.64,98.04z"/>
			</g>
			<g>
				
					<radialGradient id="SVGID_14_" cx="-2067.123" cy="-687.6597" r="7.9125" gradientTransform="matrix(6.319115e-005 -1 -1 6.319115e-005 -605.1871 -1969.6355)" gradientUnits="userSpaceOnUse">
					<stop  offset="0" style="stop-color:#FFFFFF"/>
					<stop  offset="0.3333" style="stop-color:#FEFEFE;stop-opacity:0.7961"/>
					<stop  offset="1" style="stop-color:#F6F6F6;stop-opacity:0"/>
				</radialGradient>
				<path fill="url(#SVGID_14_)" d="M83.79,91.04c0.33,0.7,0.5,1.48,0.5,2.35c0,1.7-0.65,3.18-1.95,4.45
					c-1.27,1.23-2.78,1.85-4.55,1.85c-1.73,0-3.22-0.58-4.45-1.75l-0.5-0.5l1-1.05l0.55,0.5c0.93,0.9,2.07,1.35,3.4,1.35
					c1.37,0,2.53-0.5,3.5-1.5c1-0.93,1.5-2.05,1.5-3.35c0-0.63-0.12-1.25-0.35-1.85l-0.3-0.75l1.4-0.5L83.79,91.04z"/>
			</g>
		</g>
		<g>
			<g>
				
					<linearGradient id="SVGID_15_" gradientUnits="userSpaceOnUse" x1="-1278.7695" y1="529.7285" x2="-1265.0039" y2="529.7285" gradientTransform="matrix(0.7628 -0.6466 0.6466 0.7628 702.9199 -1073.7008)">
					<stop  offset="0" style="stop-color:#B7B7B7"/>
					<stop  offset="0.2667" style="stop-color:#C9C9C9"/>
					<stop  offset="0.502" style="stop-color:#EBEBEB"/>
					<stop  offset="0.7098" style="stop-color:#C5C5C5"/>
					<stop  offset="1" style="stop-color:#ADADAD"/>
				</linearGradient>
				<path fill="url(#SVGID_15_)" d="M77.79,143.689c1.9,0,3.52,0.681,4.85,2.051c1.37,1.33,2.05,2.949,2.05,4.85
					c0,1.93-0.68,3.57-2.05,4.9c-1.33,1.369-2.95,2.05-4.85,2.05c-1.87,0-3.48-0.681-4.85-2.05c-1.33-1.33-2-2.971-2-4.9
					c0-1.9,0.67-3.52,2-4.85C74.31,144.38,75.92,143.689,77.79,143.689z"/>
			</g>
			<g>
				
					<radialGradient id="SVGID_16_" cx="-2124.5728" cy="-687.6553" r="7.9132" gradientTransform="matrix(6.319115e-005 -1 -1 6.319115e-005 -605.1793 -1969.6355)" gradientUnits="userSpaceOnUse">
					<stop  offset="0" style="stop-color:#FFFFFF"/>
					<stop  offset="0.3333" style="stop-color:#FEFEFE;stop-opacity:0.7961"/>
					<stop  offset="1" style="stop-color:#F6F6F6;stop-opacity:0"/>
				</radialGradient>
				<path fill="url(#SVGID_16_)" d="M82.44,148.9l-0.3-0.65l1.4-0.55l0.25,0.649c0.33,0.771,0.5,1.551,0.5,2.351
					c0,1.8-0.65,3.329-1.95,4.6c-1.27,1.271-2.78,1.9-4.55,1.9c-1.73,0-3.22-0.58-4.45-1.75l-0.5-0.55l1-1.101l0.55,0.55
					c0.93,0.9,2.07,1.351,3.4,1.351c1.37,0,2.53-0.479,3.5-1.45c1-0.971,1.5-2.15,1.5-3.55C82.79,150.13,82.67,149.529,82.44,148.9z
					"/>
			</g>
		</g>
		<g>
			<g>
				
					<linearGradient id="SVGID_17_" gradientUnits="userSpaceOnUse" x1="-1228.5547" y1="534.8965" x2="-1212.1582" y2="534.8965" gradientTransform="matrix(0.7633 -0.646 0.646 0.7633 703.1208 -1072.6903)">
					<stop  offset="0" style="stop-color:#B7B7B7"/>
					<stop  offset="0.2667" style="stop-color:#C9C9C9"/>
					<stop  offset="0.502" style="stop-color:#EBEBEB"/>
					<stop  offset="0.7098" style="stop-color:#C5C5C5"/>
					<stop  offset="1" style="stop-color:#ADADAD"/>
				</linearGradient>
				<path fill="url(#SVGID_17_)" d="M120.34,113.04c2.23,0,4.17,0.82,5.801,2.45c1.6,1.6,2.399,3.53,2.399,5.8
					c0,2.271-0.8,4.181-2.399,5.75c-1.631,1.63-3.57,2.45-5.801,2.45c-2.27,0-4.2-0.82-5.8-2.45c-1.63-1.569-2.45-3.479-2.45-5.75
					c0-2.27,0.82-4.2,2.45-5.8C116.14,113.86,118.07,113.04,120.34,113.04z"/>
			</g>
			<g>
				
					<radialGradient id="SVGID_18_" cx="-2096.0693" cy="-644.2544" r="9.4511" gradientTransform="matrix(5.291005e-005 -1 -1 5.291005e-005 -518.4011 -1969.6404)" gradientUnits="userSpaceOnUse">
					<stop  offset="0" style="stop-color:#FFFFFF"/>
					<stop  offset="0.3333" style="stop-color:#FEFEFE;stop-opacity:0.7961"/>
					<stop  offset="1" style="stop-color:#F6F6F6;stop-opacity:0"/>
				</radialGradient>
				<path fill="url(#SVGID_18_)" d="M125.74,126.939c-1.5,1.471-3.301,2.201-5.4,2.201c-2.07,0-3.85-0.701-5.35-2.101l-0.6-0.649
					l1.2-1.201l0.65,0.601c1.1,1.069,2.47,1.601,4.1,1.601c1.6,0,2.98-0.58,4.15-1.75c1.17-1.131,1.75-2.521,1.75-4.15
					c0-0.77-0.131-1.5-0.4-2.2l-0.35-0.8l1.65-0.65l0.399,0.8c0.37,0.9,0.55,1.85,0.55,2.85c0,2.1-0.779,3.88-2.35,5.35V126.939z"/>
			</g>
		</g>
	</g>
</g>
</svg>
